<svg id="Layer_1" height="512" viewBox="0 0 512 512" width="512" xmlns="http://www.w3.org/2000/svg" data-name="Layer 1"><circle cx="254.79" cy="430.51" fill="#d38950" r="25.68"/><path d="m254.79 404.83a25.68 25.68 0 1 1 0 51.36" fill="#de9b45"/><ellipse cx="256.99" cy="493.6" fill="#7a7a7a" opacity=".44" rx="72.11" ry="12.4"/><path d="m231.51 456.87c-.92 1.22-1.79 2.41-2.63 3.54-16.75 22.77-19.56 29-35.47 23.75-14.44-4.78-10.3-12.3-10.3-12.3s-2.52-.36-2.89-3.94c-.95-9.14 15.16-2.38 15.16-2.38l19.19-56.54s36.13 22.15 16.94 47.87z" fill="#d38950"/><path d="m156.47 390.45c-1.39 3.83 3.48 11.77 10 14.45l.5.2c6.51 3.49 15.16 1.19 16.62-2.57 10.89-28 24.9-47.54 56.16-60.57-3.34-7.89-6.4-15.74-9.49-23.71-41.17 12.52-61.26 37.81-73.79 72.2z" fill="#d38950"/><path d="m215.68 333c5.26-3 12.14-4 18-6.34-.09.13-.12-.12-.14-.17-.92-2.11-2.4-6-3-7.58-.44-1.14 0 .05-.16-.46l-.07-.18c-41.21 12.39-61.13 38-73.88 72.05-1 2.73 1.59 8.27 4.86 11.28 8.78-28.15 26.55-52.69 54.39-68.6z" fill="#de9b45"/><path d="m364.46 357.8c4.06.19 7.92 9.78 5.37 14.38a4.42 4.42 0 0 0 -.17.65c-.46 6.4-8.52 14.63-13.83 13.91-39.55-5.43-56.83-22.61-87.83-44.25 4.12-7.5 7.82-15.19 11.52-22.87 28.79 18.98 48.48 36.48 84.94 38.18z" fill="#de9b45"/><path d="m291.54 337.51a66 66 0 0 0 -15.9-10.51c.07.14.13-.11.16-.15 1-1.75 2.7-5 3.38-6.46s0-.09.27-.6-.06.14.07-.17c28.51 18.78 48.83 36.83 84.57 37.9 2.86.09 6 4.79 6.53 7.66-33.5-.59-53.5-4.88-79.08-27.67z" fill="#e8aa67"/><path d="m378.29 391.83c4-1.57 5.67-4.11 5.14-7a10.66 10.66 0 0 0 -3.43-5.13l-.91-.77a10.34 10.34 0 0 0 2.13-.91c3.17-1.79 4.84-4 4.21-6.89-.29-1.32-2.34-3.55-4.05-4.66 1.9-.87 4.53-3.29 5.06-4.52 1.18-2.68-.1-6.65-4.4-8.53-13.26-5.78-22.45 4.07-22.45 4.07-3.07 2.6-5.45 7.36-6.09 13s.58 10.82 3 14 8.96 12.29 21.79 7.34z" fill="#fae7c6"/><path d="m381.42 366.47s-9.36 1.9-15.83-1.78c0 0 15.27 2.38 21.24-3.94 0 0 .54 3.01-5.41 5.72z" fill="#eac589"/><path d="m379.2 378.92s-9.37 1.89-15.84-1.79c0 0 16.14 2.58 22.11-3.74 0 0-.61 3.86-6.27 5.53z" fill="#eac589"/><path d="m185.56 399.53c-1.25-3.83-4.76-7.82-9.74-10.55s-10.23-3.55-14.13-2.55-13.35 1.81-16.3 16c-.95 4.59 1.55 7.93 4.42 8.52 1.31.27 4.81-.48 6.61-1.51-.07 2 .56 5 1.47 6 2 2.17 4.76 2.09 8.05.54a10.58 10.58 0 0 0 2-1.21l.1 1.19a10.74 10.74 0 0 0 2.22 5.74c2 2.1 5.06 2.25 8.68-.15 11.45-7.65 6.62-22.02 6.62-22.02z" fill="#fae7c6"/><path d="m156.42 409.42s7-6.56 7.7-14c0 0-6.88 13.84-15.49 15.06 0 .04 2.14 2.21 7.79-1.06z" fill="#eac589"/><path d="m167.87 414.79s7-6.55 7.69-14c0 0-7.22 14.66-15.83 15.89 0 .04 3.5 1.76 8.14-1.89z" fill="#eac589"/><path d="m301 423.44a18.86 18.86 0 0 1 -3.68 5.24c-7.41 7.6-22.1 12.51-37.36 13.23-1.32.07-2.63.1-3.95.1s-2.52 0-3.78-.09c-15.16-.69-29.78-5.51-37.29-13a19 19 0 0 1 -3.93-5.48c-8.85-19.3-5.81-44.13 0-65.2a240.22 240.22 0 0 1 15.28-40.1 104.51 104.51 0 0 0 26.54 3.4c1.07 0 2.13 0 3.19-.06a103.45 103.45 0 0 0 28.92-5c5.67 11.33 33.23 69.52 16.06 106.96z" fill="#de9b45"/><path d="m252.67 321.56a104.51 104.51 0 0 1 -26.54-3.39 240 240 0 0 0 -15.28 40.09c-5.8 21.08-8.84 45.91 0 65.21a19 19 0 0 0 3.93 5.47c7.51 7.5 22.13 12.32 37.29 13 .9 0 1.81.05 2.71.06v-120.48c-.7.02-1.4.04-2.11.04z" fill="#d38950"/><path d="m281.4 365c0 23.67 2.17 61.95-24.41 61.95s-24.41-38.24-24.41-61.95 10.93-42.85 24.41-42.85 24.41 19.23 24.41 42.85z" fill="#fae7c6"/><path d="m207.69 484.76a14.59 14.59 0 0 1 -15.17-.7s-11.81 1.13-14-9.71a6.89 6.89 0 0 1 -5.58-5.7s-6.07-3.28.07-9.29 18.37 1.87 18.37 1.87l4.38 3.19a55.73 55.73 0 0 1 8.3 9.27 19.88 19.88 0 0 1 3.63 11.07z" fill="#fae7c6"/><g fill="#eac589"><path d="m194.45 481.42s-11.81 1.12-14-9.71a6.87 6.87 0 0 1 -5.57-5.71s-4.1-2.22-2.15-6.35c-5.64 5.82.22 9 .22 9a6.89 6.89 0 0 0 5.58 5.7c2.21 10.84 14 9.71 14 9.71a14.59 14.59 0 0 0 15.17.7l-.25-.42a20.32 20.32 0 0 1 -13-2.92z"/><path d="m172.92 468.65s4.28-11.24 13.87-6.34c0 0-6.68-1.77-13.87 6.34z"/><path d="m178.58 474.33s4.28-11.24 13.87-6.33c0 0-6.68-1.77-13.87 6.33z"/></g><path d="m260.89 447.74v4.4c.15 28.26-1.26 35 14.69 40.08 14.5 4.63 15.58-3.88 15.58-3.88s2.25 1.2 4.66-1.48c6.18-6.86-10.82-10.86-10.82-10.86l17.78-57s-42.27-3.36-41.89 28.74z" fill="#de9b45"/><path d="m263.73 484.3a14.56 14.56 0 0 0 12.66 8.36s8.89 7.87 17.06.41a6.86 6.86 0 0 0 7.86-1.33s6.84.92 5.42-7.55-16-9.3-16-9.3h-5.41a55.59 55.59 0 0 0 -12.17 2.61 19.8 19.8 0 0 0 -9.42 6.8z" fill="#fae7c6"/><path d="m276.39 489.39s8.89 7.86 17.06.41a6.88 6.88 0 0 0 7.86-1.33s4.62.61 5.47-3.87c1.14 8-5.47 7.14-5.47 7.14a6.86 6.86 0 0 1 -7.86 1.33c-8.17 7.46-17.06-.41-17.06-.41a14.56 14.56 0 0 1 -12.66-8.36l.44-.2a20.32 20.32 0 0 0 12.22 5.29z" fill="#eac589"/><path d="m301.31 491.74s3.16-11.61-7.48-13.28c0 0 6.44 2.54 7.48 13.28z" fill="#eac589"/><path d="m293.39 493s3.16-11.62-7.48-13.29c0 .01 6.44 2.51 7.48 13.29z" fill="#eac589"/><ellipse cx="263.44" cy="331.99" fill="#ce783e" opacity=".41" rx="34.04" ry="41.54" transform="matrix(.009 -1 1 .009 -70.86 592.5)"/><path d="m457.38 60.77s-68.74-7.62-136.38 57.86 55.53 94.82 60.27 99.76c.02 0 87.97-77.39 76.11-157.62z" fill="#ffc7d7"/><path d="m457.38 60.77s-84.67 72.12-103 117.25l-12.76-36.46s61-69.91 115.77-80.79" fill="#f9afc7"/><path d="m457.38 60.77s-65.38-8.91-136.38 57.86l23.73 32.37s35.54-55.87 112.65-90.23z" fill="#de9b45"/><path d="m457.38 60.77s-2 86.14-80.47 150l4.38 7.59s88.92-72.69 76.09-157.59z" fill="#de9b45"/><path d="m53.9 70.2s68.26-11.12 139.1 50.8-50.62 97.54-55.1 102.71c.04.02-91.74-72.77-84-153.51z" fill="#ffc7d7"/><path d="m53.9 70.2s88.24 67.71 108.87 111.8l10.88-37s-64.46-66.73-119.75-74.8" fill="#f9afc7"/><path d="m53.9 70.2s64.84-12.2 139.1 50.8l-22 33.54s-38.33-53.96-117.1-84.34z" fill="#d38950"/><path d="m53.9 70.2s6.4 85.93 88 145.73l-4 7.8s-92.47-68.08-84-153.53z" fill="#d38950"/><path d="m353 151.26c-15.5-29.26-47.95-53.13-86-55.48-6.61-.22-6.82-.34-17.79.46-37.88 4.28-69.07 29.76-83.06 59.76-8.56 18.39-7.93 37.34-6.69 75.23 1 30.58 1.87 49.17 15 66 11.5 14.72 29.95 24.93 32 26 5 2.71 4.07 1.69 26.15 12 16.87 7.86 28.29 11.42 31.91 11.74 3.61-.5 14.83-4.64 31.27-13.35 21.53-11.4 20.67-10.33 25.51-13.29 2-1.21 19.89-12.35 30.62-27.65 12.26-17.46 12.17-36.07 11.61-66.66-.7-37.88-1.05-56.84-10.53-74.76z" fill="#de9b45"/><path d="m249.21 96.24c-37.88 4.28-69.07 29.76-83.06 59.76-8.56 18.39-7.93 37.34-6.69 75.23 1 30.58 1.87 49.17 15 66 11.5 14.72 29.95 24.93 32 26 5 2.71 4.07 1.69 26.15 12 15.09 7 25.8 10.61 30.49 11.52l-2.72-162.12-3.69-88.92c-1.84.13-4.17.29-7.48.53z" fill="#d38950"/><path d="m249.43 104.85c11-.8 11.18-.68 17.79-.46 38 2.35 70.5 26.19 86 55.48 7.57 14.32 9.32 29.3 10.07 54-.66-30-1.88-46.72-10.29-62.62-15.5-29.25-47.95-53.08-86-55.43-6.61-.22-6.82-.34-17.79.46-37.88 4.28-69.07 29.75-83.06 59.79-7.59 16.31-8 33.06-7.07 63.07-.52-24.76.46-39.81 7.29-54.5 13.99-30.04 45.18-55.51 83.06-59.79z" fill="#f2ad61" opacity=".16"/><path d="m308.44 269.72c-7.7-9.4-25.28-25.86-26.12-26.84-14.42-17.08-18.23-74-22.54-74.31h-.06c-4.3.52-5.19 57.58-18.73 75.36-.78 1-17.5 18.36-24.71 28.15-8.13 12.26-9.15 24.31-5.23 33.18l13.63 30.9c6 13.51 21 22.61 38.12 23.36 0 0 1.22.09 1.83.05s1.82-.14 1.82-.14c17.05-1.63 31.61-11.48 36.88-25.28l12-31.55c3.5-9.06 1.86-21.05-6.89-32.88z" fill="#fae7c6"/><path d="m281.57 246.26-11.39 12a11.22 11.22 0 0 1 -15.86.4l-12-11.39a8.27 8.27 0 0 1 5.5-14.27l27.55-.71a8.27 8.27 0 0 1 6.2 13.97z" fill="#663612"/><ellipse cx="253.75" cy="245.62" fill="#753c15" rx="4.57" ry="6.35" transform="matrix(1 -.03 .03 1 -6.19 6.56)"/><ellipse cx="270.09" cy="245.21" fill="#753c15" rx="4.57" ry="6.35" transform="matrix(1 -.025 .025 1 -6.17 6.98)"/><ellipse cx="269.69" cy="245.22" fill="#4f280e" rx="4.16" ry="6.35" transform="matrix(1 -.025 .025 1 -6.17 6.97)"/><ellipse cx="253.34" cy="245.63" fill="#4f280e" rx="4.16" ry="6.35" transform="matrix(1 -.025 .025 1 -6.19 6.55)"/><g opacity=".76"><path d="m237.44 223.12a47.23 47.23 0 1 0 -46 48.41 47.23 47.23 0 0 0 46-48.41z" fill="#cc773e"/></g><path d="m228.64 221.41a47.65 47.65 0 1 0 -46.41 48.84 47.65 47.65 0 0 0 46.41-48.84z" fill="#fff"/><path d="m133.46 228.9a47.7 47.7 0 0 0 95.36-2.43 45.71 45.71 0 0 0 -.34-4.56 47.69 47.69 0 0 1 -94.91 2.43c-.11 1.5-.15 3.03-.11 4.56z" fill="#f2f2f2"/><path d="m220.33 221.64a11.65 11.65 0 1 0 -9.31 9.71 11.65 11.65 0 0 0 9.31-9.71z" fill="#3e2945"/><path d="m206.81 228.35a8.19 8.19 0 1 0 -6.55 6.83 8.2 8.2 0 0 0 6.55-6.83z" fill="#fff"/><g opacity=".6"><path d="m284.52 220.86a49.2 49.2 0 1 1 50.48 47.92 49.22 49.22 0 0 1 -50.48-47.92z" fill="#cc773e"/></g><path d="m293.09 217.84a47.65 47.65 0 1 1 48.85 46.41 47.65 47.65 0 0 1 -48.85-46.41z" fill="#fff"/><path d="m388.53 220.46a47.7 47.7 0 0 1 -95.36 2.44 43.32 43.32 0 0 1 .11-4.57 47.69 47.69 0 0 0 94.91-2.42 45.29 45.29 0 0 1 .34 4.55z" fill="#f2f2f2"/><path d="m303.71 222a11.65 11.65 0 1 1 9.79 9.22 11.65 11.65 0 0 1 -9.79-9.22z" fill="#3e2945"/><path d="m317.55 228a8.2 8.2 0 1 1 6.89 6.48 8.21 8.21 0 0 1 -6.89-6.48z" fill="#fff"/><path d="m361.82 180.9s-42.29-11.62-45-16 8.5-16.45 17.11-13.84 31.29 17.68 31 24-3.11 5.84-3.11 5.84z" fill="#663612"/><path d="m363.71 179.89c0-.23 0-.48 0-.75.26-6.26-22.43-21.34-31-23.95-6.05-1.83-13.37 3.61-16.26 8.51-.43-5 9.62-15 17.5-12.61 8.6 2.61 31.29 17.7 31 23.95-.06 2.6-.62 4.05-1.24 4.85z" fill="#753c15"/><path d="m186.43 155.39s35.47-25.79 36.45-30.79-13.76-12.4-20.89-6.92-22.99 27.58-20.59 33.32 5.03 4.39 5.03 4.39z" fill="#663612"/><path d="m184.31 155.12c-.1-.21-.21-.44-.31-.69-2.45-5.77 13.46-27.89 20.59-33.36 5-3.84 13.79-1.34 18.22 2.23-1.37-4.85-14.29-10.63-20.82-5.62-7.14 5.47-23 27.59-20.59 33.35 1.01 2.4 2.04 3.55 2.91 4.09z" fill="#753c15"/><path d="m275.37 232.29-27.55.71a8.05 8.05 0 0 0 -5.92 2.72l39.52-1a8.12 8.12 0 0 0 -6.05-2.43z" fill="#753c15"/><path d="m292.22 221.82 96.53.17c.51-4.31-.91-15.36-1.42-17.14-8.44-29.39-39.53-43.95-66-33.33-18.33 7.35-30.56 30.22-29.11 50.3z" fill="#cc773e"/><path d="m133.37 215.91h95.29a26.43 26.43 0 0 0 -.8-8.71c-8.44-29.38-45.2-41.13-70.2-27.36-16.21 8.93-19.79 20.93-24.29 36.07z" fill="#cc773e"/><path d="m250.86 299.26s-7.14 39.37-11.63-.82z" fill="#dd686e"/><path d="m293.33 297.42s-9.58 9.66-18 4.4a16.87 16.87 0 0 1 -3.18-2.71c-1.65-1.73-5.63-5.15-11.1-4.76-3.33.24-9.64 3.42-12.58 4.5-9.21 3.39-15.79-5.83-18-8.19" fill="none" stroke="#822244" stroke-miterlimit="10"/><path d="m227.14 295.93 6.08-9.49-2.29-2.27-6.08 9.49z" fill="#822244"/><path d="m296.47 302.9-6.08-9.49 2.29-2.27 6.08 9.49z" fill="#822244"/><path d="m380.53 324.91-5-1.11 6.66-30.5c.79-3.62-.26-7-2.34-7.41l-4.71-1c-2.08-.46-4.42 2.14-5.22 5.76l-6.66 30.5-5-1.1c-2.08-.45-4.42 2.14-5.21 5.76l-18.43 84.4c-.79 3.62.26 7 2.34 7.41l22.37 4.89c2.07.45 4.42-2.14 5.21-5.77l18.43-84.39c.69-3.66-.36-6.99-2.44-7.44z" fill="#4eb65c" opacity=".87"/><rect fill="#189e64" height="7.32" rx=".6" transform="matrix(.977 .213 -.213 .977 70.25 -73.71)" width="15.13" x="369.16" y="285.01"/><rect fill="#fff" height="77.82" opacity=".44" rx=".41" transform="matrix(.977 .213 -.213 .977 89.63 -69.64)" width="4.18" x="365.45" y="341.61"/><rect fill="#189e64" height="77.82" rx=".41" transform="matrix(.977 .213 -.213 .977 88.03 -65.53)" width="4.18" x="345.58" y="336.26"/><rect fill="#fff" height="27.03" opacity=".44" rx=".18" transform="matrix(.977 .213 -.213 .977 74.8 -73.09)" width="1.81" x="375.16" y="296.54"/><g isolation="isolate"><path d="m169.56 86.73c-2 .24-3.44 0-4-.73a2 2 0 0 1 -.32-1.73c1.4-6.13 36.28-27.32 70-45.08.76-.39 74.85-39.26 79.96-32.37a2 2 0 0 1 .32 1.73c-1.41 6.14-36.29 27.32-70 45.08-.69.37-59.43 31.18-75.96 33.1zm-1.89-2.12c3.56 1 32.43-9.85 76.69-33.14 43.1-22.69 67.1-39.33 68.7-43.2-4.14-.87-32.87 10-76.66 33.08-43.35 22.82-67.4 39.51-68.73 43.26z" fill="#d8d8d8"/></g><g isolation="isolate"><path d="m261.12 52.85c-8.78 1-15.07 1.64-16 1.73-38.53 3.76-80.09 5.34-85 1.09a2.1 2.1 0 0 1 -.78-1.5c-.38-8.52 81.4-16.6 84.88-16.93 38.52-3.76 80.08-5.35 85-1.09a2.07 2.07 0 0 1 .78 1.5c.29 6.28-44.16 12.35-68.88 15.2zm-99.12 1.15c3.66 2.33 33.49 3 82.92-1.86 49.92-4.87 79.35-11.33 82.5-14.35-3.65-2.33-33.48-3-82.92 1.86-49.94 4.89-79.37 11.35-82.5 14.35z" fill="#d8d8d8"/></g><g isolation="isolate"><circle cx="155.55" cy="77.08" fill="#d8d8d8" r="4.13"/></g><g isolation="isolate"><path d="m322.12 47.98 3.03 4.68 5.57.15-3.52 4.33 1.57 5.34-5.19-2-4.6 3.14.3-5.56-4.41-3.4 5.38-1.44z" fill="#d8d8d8"/></g><g isolation="isolate"><path d="m339.77 37.77 1.87 2.89 3.44.1-2.17 2.67.97 3.3-3.21-1.24-2.84 1.94.18-3.43-2.72-2.1 3.33-.89z" fill="#d8d8d8"/></g></svg>