<?xml version="1.0" standalone="no"?>
<!DOCTYPE svg PUBLIC "-//W3C//DTD SVG 20010904//EN"
 "http://www.w3.org/TR/2001/REC-SVG-20010904/DTD/svg10.dtd">
<svg version="1.0" xmlns="http://www.w3.org/2000/svg"
 width="4096.000000pt" height="4096.000000pt" viewBox="0 0 4096.000000 4096.000000"
 preserveAspectRatio="xMidYMid meet">

<g transform="translate(0.000000,4096.000000) scale(0.100000,-0.100000)"
fill="#000000" stroke="none">
<path d="M4970 30709 c-286 -25 -472 -88 -576 -195 -118 -120 -135 -311 -52
-574 54 -173 138 -290 306 -431 173 -144 331 -243 677 -426 481 -255 2301
-1244 9255 -5028 4396 -2392 4378 -2382 4519 -2446 272 -121 581 -202 919
-239 286 -32 795 -31 1088 0 338 37 647 118 925 244 146 66 147 67 4749 2571
6100 3319 8344 4539 8890 4830 542 289 724 409 906 596 109 112 157 189 198
318 68 213 74 380 17 496 -72 146 -219 224 -511 272 -99 17 -933 18 -15660 19
-8555 1 -15598 -2 -15650 -7z"/>
<path d="M4060 28831 c-119 -37 -186 -139 -210 -321 -6 -48 -9 -3058 -10
-8366 0 -9039 -4 -8360 55 -8533 102 -299 354 -626 690 -895 278 -222 610
-388 905 -452 83 -18 501 -19 15065 -19 14450 0 14983 1 15065 18 125 27 220
61 359 127 260 126 502 315 707 553 227 264 373 547 419 812 14 81 15 941 13
8485 -3 8145 -4 8396 -22 8445 -10 28 -29 65 -43 84 -106 140 -392 71 -823
-199 -318 -199 -1170 -776 -2605 -1763 -4209 -2896 -5804 -3978 -7377 -5001
-126 -81 -228 -149 -228 -151 0 -2 1500 -1692 3334 -3755 2944 -3313 3339
-3761 3372 -3827 102 -200 23 -334 -176 -302 -103 16 -200 76 -395 241 -99 84
-1534 1295 -3190 2692 -1655 1397 -3149 2658 -3320 2802 -170 144 -521 440
-780 659 -258 218 -476 399 -482 402 -7 3 -223 -130 -480 -295 -1180 -756
-1649 -1047 -1808 -1122 -234 -111 -468 -190 -689 -235 -246 -49 -453 -65
-846 -65 -439 0 -707 26 -975 95 -244 62 -562 192 -752 305 -235 142 -957 598
-1713 1085 -195 126 -362 229 -372 229 -14 1 -3774 -3165 -7031 -5919 -494
-418 -926 -779 -960 -803 -82 -57 -179 -86 -260 -79 -102 9 -152 62 -152 161
0 54 7 76 42 148 25 50 66 110 101 149 32 35 1482 1668 3222 3629 1740 1961
3212 3619 3271 3685 l107 121 -337 219 c-452 295 -2055 1359 -2686 1785 -1003
675 -2084 1410 -4480 3047 -1943 1326 -2731 1851 -2976 1982 -229 122 -437
176 -549 142z"/>
</g>
</svg>
