<svg id="Layer_1" height="512" viewBox="0 0 512 512" width="512" xmlns="http://www.w3.org/2000/svg" data-name="Layer 1"><path d="m106.31 314.97h13.41v92.43h-13.41z" fill="#e0452e"/><path d="m119.73 314.97h13.41v92.43h-13.41z" fill="#fce275"/><path d="m133.14 314.97h13.41v92.43h-13.41z" fill="#4eb65c"/><path d="m146.55 314.97h13.41v92.43h-13.41z" fill="#ccecfb"/><path d="m417.58 314.97h13.41v92.43h-13.41z" fill="#e0452e"/><path d="m404.16 314.97h13.41v92.43h-13.41z" fill="#fce275"/><path d="m390.75 314.97h13.41v92.43h-13.41z" fill="#4eb65c"/><path d="m377.34 314.97h13.41v92.43h-13.41z" fill="#ccecfb"/><path d="m417.58 315c0-190.07-297.85-190.07-297.85 0h-13.42c0-207.19 324.68-207.19 324.68 0z" fill="#e0452e"/><path d="m404.16 315c0-173-271-173-271 0h-13.43c0-190.07 297.85-190.07 297.85 0z" fill="#fce275"/><path d="m390.75 315c0-155.84-244.2-155.84-244.2 0h-13.41c0-173 271-173 271 0z" fill="#4eb65c"/><path d="m377.34 315c0-138.72-217.38-138.72-217.38 0h-13.41c0-155.84 244.2-155.84 244.2 0z" fill="#ccecfb"/><path d="m303.86 446a20.06 20.06 0 0 0 -7.65 1.45c-1.25-5.28-8.19-9.32-16.59-9.32a24.65 24.65 0 0 0 -3 .19 9.91 9.91 0 0 0 2.05-5.89c0-7.5-9.26-13.58-20.69-13.58-10.79 0-19.65 5.43-20.59 12.36a17.2 17.2 0 0 0 -5.7-.95 15.53 15.53 0 0 0 -8.53 2.35c-3.43-3-8.94-5-15.14-5-10.4 0-18.84 5.54-18.84 12.37v.02c-7.82.47-14.12 4.37-15.4 9.39a16.54 16.54 0 0 0 -2.86-.25c-6.25 0-11.31 3.32-11.31 7.42s5.06 7.42 11.31 7.42a15.31 15.31 0 0 0 7.07-1.64 9.86 9.86 0 0 0 4.4 1.31c.8 2.75 4.49 4.84 8.92 4.84a11.48 11.48 0 0 0 7-2.13c3 3 8.18 4.93 14 4.93s11-1.94 14-4.89c3.47 3.7 9.7 6.17 16.8 6.17 7.68 0 14.34-2.89 17.59-7.1 2.87 2.81 7.74 4.65 13.28 4.65 6.19 0 11.54-2.3 14.2-5.67a14.18 14.18 0 0 0 3.32.39 13.2 13.2 0 0 0 5.5-1.14 20.49 20.49 0 0 0 6.87 1.14c7.94 0 14.37-4.22 14.37-9.43s-6.44-9.41-14.38-9.41z" fill="#ceecfd"/><path d="m303.25 441a20.22 20.22 0 0 0 -7.48 1.38c-1.23-5-8-8.82-16.23-8.82a25.8 25.8 0 0 0 -2.94.17 9.12 9.12 0 0 0 2-5.57c0-7.1-9.06-12.85-20.23-12.85-10.57 0-19.24 5.14-20.16 11.69a17.17 17.17 0 0 0 -5.57-.89 15.63 15.63 0 0 0 -8.35 2.22c-3.36-2.88-8.74-4.74-14.81-4.74-10.18 0-18.44 5.24-18.44 11.7a.43.43 0 0 0 0 .05c-7.66.45-13.82 4.14-15.07 8.89a17 17 0 0 0 -2.8-.23c-6.11 0-11.07 3.14-11.07 7s5 7 11.07 7a15.35 15.35 0 0 0 6.92-1.55 9.69 9.69 0 0 0 4.3 1.23c.78 2.61 4.39 4.59 8.73 4.59a11.49 11.49 0 0 0 6.81-2c3 2.81 8 4.67 13.73 4.67s10.73-1.84 13.7-4.62c3.39 3.49 9.48 5.83 16.43 5.83 7.52 0 14-2.74 17.21-6.72 2.81 2.66 7.58 4.41 13 4.41 6.05 0 11.29-2.19 13.89-5.38a14.21 14.21 0 0 0 3.26.38 13.09 13.09 0 0 0 5.37-1.09 20.45 20.45 0 0 0 6.72 1.09c7.77 0 14.07-4 14.07-8.93s-6.31-8.91-14.06-8.91z" fill="#f3fbff"/><path d="m420.28 412.34a28.89 28.89 0 0 0 -11 2.09c-1.81-7.59-11.79-13.4-23.86-13.4a38.12 38.12 0 0 0 -4.32.26 14.15 14.15 0 0 0 2.94-8.47c0-10.78-13.32-19.51-29.74-19.51-15.53 0-28.28 7.8-29.63 17.76a24.67 24.67 0 0 0 -8.19-1.36 22.42 22.42 0 0 0 -12.27 3.37c-4.94-4.36-12.85-7.19-21.77-7.19-15 0-27.1 8-27.1 17.78v.08c-11.26.67-20.32 6.28-22.15 13.5a25.06 25.06 0 0 0 -4.12-.36c-9 0-16.26 4.78-16.26 10.67s7.28 10.67 16.26 10.67a22 22 0 0 0 10.17-2.35 14.07 14.07 0 0 0 6.33 1.87c1.15 4 6.45 7 12.83 7a16.48 16.48 0 0 0 10-3.06c4.35 4.28 11.77 7.1 20.19 7.1s15.77-2.79 20.13-7c5 5.32 13.94 8.86 24.16 8.86 11.05 0 20.62-4.15 25.29-10.2 4.13 4 11.15 6.69 19.11 6.69 8.9 0 16.59-3.32 20.42-8.17a19.87 19.87 0 0 0 4.78.58 19 19 0 0 0 7.9-1.65 29.49 29.49 0 0 0 9.88 1.65c11.42 0 20.68-6.08 20.68-13.57s-9.24-13.64-20.66-13.64z" fill="#ceecfd"/><path d="m419.41 405.18a29.21 29.21 0 0 0 -10.75 2c-1.77-7.18-11.54-12.68-23.35-12.68a36.38 36.38 0 0 0 -4.22.25 13.21 13.21 0 0 0 2.87-8c0-10.2-13-18.47-29.1-18.47-15.2 0-27.66 7.39-29 16.81a24.75 24.75 0 0 0 -8-1.28 22.47 22.47 0 0 0 -12 3.19c-4.83-4.13-12.57-6.81-21.3-6.81-14.64 0-26.52 7.53-26.52 16.83v.07c-11 .64-19.88 5.95-21.67 12.78a25.11 25.11 0 0 0 -4-.34c-8.78 0-15.9 4.52-15.9 10.1s7.12 10.1 15.9 10.1a22.17 22.17 0 0 0 10-2.23 14 14 0 0 0 6.19 1.78c1.13 3.75 6.32 6.59 12.55 6.59a16.49 16.49 0 0 0 9.79-2.9c4.26 4 11.52 6.71 19.76 6.71s15.34-2.68 19.62-6.68c4.88 5 13.64 8.39 23.63 8.39 10.82 0 20.18-3.93 24.75-9.66 4 3.82 10.91 6.34 18.7 6.34 8.7 0 16.23-3.15 20-7.73a20.54 20.54 0 0 0 4.67.54 19 19 0 0 0 7.73-1.56 29.89 29.89 0 0 0 9.67 1.56c11.18 0 20.24-5.75 20.24-12.84s-9.08-12.86-20.26-12.86z" fill="#f3fbff"/><path d="m233.84 409.41a20 20 0 0 0 -7.64 1.45c-1.25-5.28-8.19-9.32-16.59-9.32a24.65 24.65 0 0 0 -3 .19 9.91 9.91 0 0 0 2-5.89c0-7.5-9.27-13.58-20.69-13.58-10.8 0-19.66 5.43-20.59 12.36a17.2 17.2 0 0 0 -5.7-.95 15.62 15.62 0 0 0 -8.53 2.34c-3.44-3-8.94-5-15.14-5-10.41 0-18.84 5.54-18.84 12.37v.05c-7.83.47-14.12 4.37-15.4 9.39a16.63 16.63 0 0 0 -2.86-.25c-6.25 0-11.31 3.32-11.31 7.42s5.06 7.42 11.31 7.42a15.34 15.34 0 0 0 7.07-1.64 9.73 9.73 0 0 0 4.4 1.3c.8 2.76 4.49 4.84 8.92 4.84a11.48 11.48 0 0 0 7-2.12c3 3 8.18 4.93 14 4.93s11-1.94 14-4.89c3.47 3.7 9.69 6.17 16.8 6.17 7.68 0 14.33-2.89 17.59-7.1 2.87 2.8 7.74 4.65 13.28 4.65 6.18 0 11.54-2.3 14.2-5.67a14.12 14.12 0 0 0 3.32.39 13.12 13.12 0 0 0 5.49-1.14 20.58 20.58 0 0 0 6.87 1.14c7.95 0 14.38-4.22 14.38-9.43s-6.39-9.43-14.34-9.43z" fill="#ceecfd"/><path d="m233.24 404.43a20.22 20.22 0 0 0 -7.48 1.38c-1.23-5-8-8.83-16.23-8.83a25.79 25.79 0 0 0 -2.94.18 9.18 9.18 0 0 0 2-5.57c0-7.1-9.06-12.85-20.23-12.85-10.57 0-19.24 5.14-20.16 11.69a17.21 17.21 0 0 0 -5.57-.89 15.63 15.63 0 0 0 -8.35 2.22c-3.36-2.88-8.74-4.74-14.81-4.74-10.18 0-18.44 5.24-18.44 11.7a.43.43 0 0 0 0 0c-7.66.45-13.82 4.14-15.07 8.89a17.1 17.1 0 0 0 -2.81-.23c-6.11 0-11.06 3.14-11.06 7s5 7 11.06 7a15.36 15.36 0 0 0 6.93-1.55 9.66 9.66 0 0 0 4.3 1.23c.78 2.61 4.39 4.58 8.73 4.58a11.46 11.46 0 0 0 6.8-2c3 2.81 8 4.67 13.74 4.67s10.73-1.84 13.7-4.63c3.39 3.5 9.48 5.84 16.43 5.84 7.52 0 14-2.74 17.21-6.72 2.81 2.66 7.58 4.41 13 4.41 6.05 0 11.29-2.19 13.89-5.38a14.12 14.12 0 0 0 3.25.38 13.27 13.27 0 0 0 5.38-1.09 20.45 20.45 0 0 0 6.72 1.09c7.77 0 14.07-4 14.07-8.93s-6.3-8.85-14.06-8.85z" fill="#f3fbff"/><path d="m357 185.36 7.81-4.28 21.55 31.14s-13.46 18.27-23.29 19.14z" fill="#ffc7d7"/><path d="m377.16 219.59s-12.1 9.13-13.48 10.08v8.5a98.38 98.38 0 0 0 17.53-11.54l-4-7" fill="#de9b45"/><path d="m454.58 84.08s-62.77-8.59-126.22 49.79 48.64 88.13 52.85 92.76c0 0 82.34-68.79 73.37-142.55z" fill="#ffc7d7"/><path d="m454.58 84.08s-79.22 64.06-97.08 105l-10.83-33.68s57.47-62.6 107.91-71.28" fill="#f9afc7"/><path d="m454.58 84.08s-59.66-9.69-126.22 49.79l20.95 30.19s33.85-50.32 105.27-79.98z" fill="#de9b45"/><path d="m454.58 84.08s-5.3 79.81-78.66 136.47l5.29 6.08s83.13-64.5 73.37-142.55z" fill="#de9b45"/><path d="m180.36 189.93-7.81-4.27-21.55 31.13s13.46 18.27 23.29 19.14z" fill="#ffc7d7"/><path d="m160.23 224.17s12.1 9.12 13.48 10.07v8.5a98 98 0 0 1 -17.53-11.53l4-7" fill="#d38950"/><path d="m153.44 218.9 9.74 7.48-3.6 7.54-7.43-5.76z" fill="#d38950"/><g fill="#fce275"><path d="m24.11 294.23-4.58-9a28.66 28.66 0 0 0 -7.25-9.05l-5.28-4.39a2.74 2.74 0 0 1 .19-4.4l1.81-1.23a37.47 37.47 0 0 0 11.59-13l4.21-7.92 4.32 9.16a26.5 26.5 0 0 0 8 9.8l4.68 3.56a2.74 2.74 0 0 1 0 4.43l-4.17 3.09a31.91 31.91 0 0 0 -9.45 11.16z"/><path d="m202.74 62.49-2.84-5.61a17.72 17.72 0 0 0 -4.5-5.62l-3.27-2.71a1.7 1.7 0 0 1 .12-2.73l1.08-.76a23.16 23.16 0 0 0 7.2-8.09l2.62-4.92 2.68 5.69a16.54 16.54 0 0 0 4.95 6.08l2.9 2.21a1.71 1.71 0 0 1 0 2.76l-2.58 1.92a19.64 19.64 0 0 0 -5.87 6.92z"/><path d="m486.26 256.48-4.82-9.48a30.23 30.23 0 0 0 -7.65-9.54l-5.55-4.59a2.9 2.9 0 0 1 .2-4.65l1.85-1.29a39.32 39.32 0 0 0 12.22-13.73l4.44-8.35 4.56 9.66a28 28 0 0 0 8.39 10.33l4.93 3.75a2.9 2.9 0 0 1 0 4.68l-4.39 3.26a33.43 33.43 0 0 0 -10 11.75z"/></g><path d="m372.5 379.52c0 .05-.19.58-.22.66-1.08 5.66-7.74 14-13.49 12.54-2-.53-4-1.05-5.82-1.61-37.89-10.91-48.59-24.82-76.68-54 3.76-4.4 7.53-8.67 11.35-12.94l2.72-3 .18-.18c.9-1 1.77-2 2.72-3l.08-.08v-.06c6.22 5 11.51 9.75 16.42 14.12l4.77 4.3c2.9 2.58 5.69 5.06 8.54 7.35a89.74 89.74 0 0 0 28.25 16.07c.31.13.66.24 1 .35 1.72.6 3.51 1.15 5.35 1.68q4.91 1.38 10.6 2.48a1.77 1.77 0 0 1 .55.18 2.56 2.56 0 0 1 -.21.4s0 0-.08.1a15 15 0 0 1 -2.69 3.27 5.88 5.88 0 0 0 -1.55 1.74 3.76 3.76 0 0 0 -.45.74 1.05 1.05 0 0 0 -.13.26c-2 4.53 4.32 9.09 7.93 4.85a6.56 6.56 0 0 1 .5-.55l1-1a11.29 11.29 0 0 1 -.64 5.33z" fill="#de9b45"/><path d="m369 364.21a3.07 3.07 0 0 0 -.87-.32c-3.68-.63-7.14-1.39-10.32-2.24-1.88-.5-3.67-1-5.41-1.6-.31-.11-.66-.22-1-.35-11.65-3.92-20.11-9.4-28.25-16.07-2.85-2.29-5.64-4.77-8.54-7.35l-4.77-4.3c-4.91-4.42-10.2-9.17-16.42-14.15l-.08.08c0 .05-.06.05-.06.08a3.36 3.36 0 0 1 -.34.42c-.63.71-1.45 1.58-2.32 2.48l-.18.18c-.95 1-1.93 1.95-2.72 2.77a.4.4 0 0 1 -.13.13c.05.06.08.11.13.13 4.91 4.51 8.81 7.65 14 12.92 20.21 20.52 32.2 25.85 51.72 31 3.27.84 6.75 1.71 10.52 2.61a3.76 3.76 0 0 1 .45-.74 5.88 5.88 0 0 1 1.55-1.74 15 15 0 0 0 2.69-3.27c.05-.05.05-.08.08-.1a2.56 2.56 0 0 0 .21-.4z" fill="#e8aa67"/><path d="m255.36 335c-28.64 29.75-39.21 43.66-79 54.68l-3.53.95c-5.72 1.5-12.42-6.91-13.5-12.57 0-.06-.18-.61-.21-.66a10.29 10.29 0 0 1 -.76-4.32c.21.21.39.42.5.55 3.61 4.24 9.93-.32 7.93-4.85a4.69 4.69 0 0 0 -.58-1 5.76 5.76 0 0 0 -1.55-1.74 15 15 0 0 1 -2.69-3.27 3.23 3.23 0 0 1 1.37-.66c3.45-.66 6.67-1.42 9.67-2.24 3.19-.87 6.17-1.81 8.93-2.84a2.56 2.56 0 0 1 .4-.16c1.66-.61 3.27-1.27 4.8-2a98 98 0 0 0 23.24-15c3.22-2.69 6.41-5.56 9.78-8.6 4.69-4.19 9.7-8.74 15.52-13.57.82-.68 1.66-1.37 2.53-2.05 1 1.06 1.92 2.14 2.87 3.19l.16.16c.89 1 1.79 2 2.69 3 3.9 4.37 7.66 8.64 11.43 13z" fill="#d38950"/><path d="m162 362.81a15 15 0 0 0 2.69 3.27 5.76 5.76 0 0 1 1.55 1.74 4.69 4.69 0 0 1 .58 1c3.77-.92 7.27-1.77 10.54-2.61 20.08-5.21 32.12-10.35 52.64-31.21 5.19-5.3 9.09-8.4 14-12.91.05 0 .07-.08.13-.13a.52.52 0 0 1 -.13-.13c-.8-.82-1.77-1.8-2.69-2.77l-.16-.16c-.9-.92-1.71-1.82-2.37-2.53a2.52 2.52 0 0 1 -.34-.39s0 0-.06-.08a.61.61 0 0 0 -.13-.16c-.87.68-1.71 1.37-2.53 2.05-5.82 4.77-10.83 9.33-15.52 13.57-3.37 3-6.56 5.91-9.78 8.6a92.81 92.81 0 0 1 -23.24 15c-1.53.68-3.14 1.34-4.8 2a2.56 2.56 0 0 0 -.4.16c-2.79 1-5.77 1.92-9 2.74-3 .74-6.09 1.42-9.44 2a3.17 3.17 0 0 0 -1.63.9z" fill="#de9b45"/><circle cx="267.32" cy="429.64" fill="#d38950" r="24.02"/><path d="m267.32 405.63a24 24 0 1 1 0 48" fill="#de9b45"/><path d="m310.54 423a17.61 17.61 0 0 1 -3.45 4.89c-6.93 7.11-20.66 11.7-34.94 12.38q-1.84.09-3.69.09c-1.18 0-2.36 0-3.54-.08-14.18-.65-27.85-5.16-34.88-12.16a17.91 17.91 0 0 1 -3.67-5.12c-8.28-18.05-5.43-41.28 0-61a224.74 224.74 0 0 1 14.29-37.5 97.64 97.64 0 0 0 24.82 3.17c1 0 2 0 3-.05a96.66 96.66 0 0 0 27-4.64c5.35 10.61 31.12 65.02 15.06 100.02z" fill="#de9b45"/><path d="m265.34 327.75a97.64 97.64 0 0 1 -24.82-3.18 224.2 224.2 0 0 0 -14.29 37.5c-5.43 19.71-8.27 42.94 0 61a17.78 17.78 0 0 0 3.67 5.12c7 7 20.7 11.51 34.88 12.16.84 0 1.69.05 2.53.06v-112.7c-.65.02-1.31.04-1.97.04z" fill="#d38950"/><path d="m292.21 368.42c0 22.13 2 57.93-22.83 57.93s-22.83-35.8-22.83-57.93 10.22-40.08 22.83-40.08 22.83 17.94 22.83 40.08z" fill="#fae7c6"/><ellipse cx="268" cy="333.27" fill="#ce783e" opacity=".41" rx="31.84" ry="38.86" transform="matrix(.034 -.999 .999 .034 -74.27 589.67)"/><path d="m78.35 83.49s64.09-8.76 128.87 50.84-49.32 83.95-53.63 88.67c0 0-84.41-64.2-75.24-139.51z" fill="#ffc7d7"/><path d="m78.35 83.49s80.88 65.41 99.11 107.17l11.06-34.39s-58.67-63.91-110.17-72.78" fill="#f9afc7"/><path d="m78.35 83.49s60.91-9.89 128.87 50.84l-21.39 30.83s-34.57-51.38-107.48-81.67z" fill="#d38950"/><path d="m78.35 83.49s3.92 80.5 78.82 138.35l-3.91 7.21s-84.88-65.86-74.91-145.56z" fill="#d38950"/><path d="m356.05 166.43c-13.79-27.76-43.56-50.83-79.05-53.93-6.17-.37-6.37-.48-16.64 0-35.52 3.1-65.29 26.17-79.08 53.93-8.44 17-8.31 34.71-8.06 70.17.21 28.62.58 46 12.45 62 10.4 14.05 27.41 24 29.29 25.12 4.6 2.65 3.77 1.67 24.17 11.82 15.58 7.74 26.17 11.35 29.55 11.73 3.38-.38 14-4 29.56-11.73 20.4-10.15 19.57-9.17 24.16-11.82 1.88-1.09 18.89-11.07 29.29-25.12 11.88-16 12.24-33.43 12.45-62 .23-35.46.36-53.19-8.09-70.17z" fill="#de9b45"/><path d="m260.33 112.5c-35.52 3.1-65.29 26.17-79.08 53.93-8.44 17-8.31 34.71-8.06 70.17.21 28.62.58 46 12.45 62 10.4 14.05 27.41 24 29.29 25.12 4.6 2.65 3.77 1.67 24.17 11.82 13.93 6.93 23.86 10.53 28.22 11.5l1.33-151.65-1.33-83.22c-1.7.09-3.88.19-6.99.33z" fill="#d38950"/><path d="m260.33 120.56c10.27-.49 10.47-.37 16.64 0 35.52 3.1 65.29 26.16 79.08 53.92 6.75 13.57 8 27.62 8.13 50.78.11-28.08-.64-43.73-8.13-58.8-13.79-27.75-43.56-50.82-79.08-53.92-6.17-.37-6.37-.48-16.64 0-35.52 3.1-65.29 26.17-79.08 53.92-7.49 15.06-8.23 30.72-8.13 58.8.11-23.17 1.39-37.21 8.13-50.78 13.75-27.76 43.56-50.82 79.08-53.92z" fill="#f2ad61" opacity=".16"/><path d="m311.57 276.12c-7-9-23-24.78-23.78-25.72-13.08-16.31-15.28-69.63-19.3-70h-.06c-4 .38-6.23 53.7-19.31 70-.75.94-16.8 16.75-23.78 25.72-7.89 11.27-9.13 22.51-5.68 30.9l12 29.21c5.26 12.78 19.11 21.64 35.09 22.76 0 0 1.14.11 1.71.09s1.71-.09 1.71-.09c16-1.12 29.82-10 35.08-22.76l12-29.21c3.46-8.39 2.21-19.63-5.68-30.9z" fill="#fae7c6"/><path d="m287 253.54-10.94 10.94a10.49 10.49 0 0 1 -14.84 0l-10.92-10.94a7.74 7.74 0 0 1 5.47-13.21h25.77a7.74 7.74 0 0 1 5.46 13.21z" fill="#663612"/><ellipse cx="261.01" cy="252.28" fill="#753c15" rx="4.27" ry="5.94"/><ellipse cx="276.3" cy="252.28" fill="#753c15" rx="4.27" ry="5.94"/><ellipse cx="275.92" cy="252.28" fill="#4f280e" rx="3.9" ry="5.94"/><ellipse cx="260.63" cy="252.28" fill="#4f280e" rx="3.9" ry="5.94"/><path d="m338.62 165.12s-39.25-11.87-41.66-16 8.34-15.12 16.33-12.52 28.83 17.28 28.44 23.13-3.11 5.39-3.11 5.39z" fill="#663612"/><path d="m340.41 164.23c0-.21 0-.45.07-.7.39-5.85-20.48-20.53-28.48-23.13-5.61-1.86-12.59 3-15.4 7.56-.29-4.7 9.35-13.78 16.66-11.36 8 2.63 28.83 17.28 28.44 23.13-.12 2.43-.7 3.76-1.29 4.5z" fill="#753c15"/><path d="m198.65 166.72s38.78-13.36 41-17.57-8.91-14.85-16.79-11.9-28.15 18.36-27.54 24.19 3.33 5.28 3.33 5.28z" fill="#663612"/><path d="m196.83 165.89a6.65 6.65 0 0 1 -.09-.7c-.61-5.83 19.67-21.25 27.54-24.19 5.54-2.07 12.7 2.57 15.69 7 .1-4.71-9.88-13.42-17.09-10.73-7.88 2.94-28.15 18.38-27.54 24.2.24 2.39.85 3.71 1.49 4.42z" fill="#753c15"/><path d="m281.54 240.33h-25.77a7.59 7.59 0 0 0 -5.61 2.41h37a7.59 7.59 0 0 0 -5.62-2.41z" fill="#753c15"/><ellipse cx="237.93" cy="439.96" fill="#de9b45" rx="14.19" ry="42.84" transform="matrix(.536 -.844 .844 .536 -261.04 405.22)"/><ellipse cx="298.57" cy="440.82" fill="#e8aa67" rx="43.82" ry="14.19" transform="matrix(.866 -.5 .5 .866 -180.41 208.35)"/><path d="m235.46 294.54c9.33 11.88 22.37 20.2 37.93 18.17 13.7-1.79 22.2-10.48 30.09-21.21.86-1.17-1.09-2.29-1.94-1.13-7.69 10.45-16 18.75-29.4 20.24-14.48 1.61-26.49-6.72-35.09-17.66-.89-1.14-2.48.47-1.59 1.59z" fill="#822244"/><path d="m371.15 448.23a18.26 18.26 0 0 0 -6.94 1.31c-1.14-4.79-7.44-8.45-15.06-8.45a24.1 24.1 0 0 0 -2.72.16 8.94 8.94 0 0 0 1.85-5.34c0-6.8-8.4-12.32-18.77-12.32-9.8 0-17.84 4.93-18.69 11.21a15.71 15.71 0 0 0 -5.18-.85 14.17 14.17 0 0 0 -7.74 2.12c-3.11-2.75-8.11-4.54-13.74-4.54-9.44 0-17.1 5-17.1 11.22v.05c-7.1.43-12.82 4-14 8.52a15.75 15.75 0 0 0 -2.61-.22c-5.66 0-10.26 3-10.26 6.73s4.6 6.73 10.26 6.73a13.87 13.87 0 0 0 6.43-1.48 8.83 8.83 0 0 0 4 1.18c.72 2.5 4.07 4.4 8.1 4.4a10.39 10.39 0 0 0 6.31-1.94c2.75 2.7 7.43 4.48 12.74 4.48s9.95-1.76 12.71-4.43c3.14 3.35 8.79 5.59 15.24 5.59 7 0 13-2.62 16-6.44 2.61 2.54 7 4.22 12.06 4.22 5.61 0 10.47-2.09 12.89-5.15a12.66 12.66 0 0 0 3 .36 12 12 0 0 0 5-1 18.68 18.68 0 0 0 6.24 1c7.2 0 13.05-3.83 13.05-8.56s-5.87-8.56-13.07-8.56z" fill="#ceecfd"/><path d="m370.6 443.71a18.34 18.34 0 0 0 -6.79 1.25c-1.12-4.54-7.28-8-14.73-8a23.21 23.21 0 0 0 -2.67.16 8.34 8.34 0 0 0 1.82-5.06c0-6.44-8.23-11.66-18.37-11.66-9.59 0-17.46 4.67-18.29 10.62a15.6 15.6 0 0 0 -5.06-.82 14.12 14.12 0 0 0 -7.58 2c-3.05-2.61-7.93-4.3-13.44-4.3-9.24 0-16.74 4.75-16.74 10.62a.43.43 0 0 1 0 .05c-7 .4-12.55 3.75-13.68 8.06a16.15 16.15 0 0 0 -2.55-.21c-5.54 0-10 2.85-10 6.37s4.5 6.37 10 6.37a14.09 14.09 0 0 0 6.29-1.4 9 9 0 0 0 3.9 1.12c.71 2.37 4 4.16 7.93 4.16a10.44 10.44 0 0 0 6.17-1.83c2.69 2.55 7.27 4.23 12.47 4.23s9.74-1.66 12.43-4.19c3.08 3.17 8.61 5.29 14.92 5.29 6.82 0 12.73-2.48 15.62-6.1 2.55 2.42 6.88 4 11.8 4 5.49 0 10.24-2 12.61-4.87a13.25 13.25 0 0 0 2.95.34 12 12 0 0 0 4.88-1 18.66 18.66 0 0 0 6.1 1c7 0 12.77-3.63 12.77-8.11s-5.71-8.09-12.76-8.09z" fill="#f3fbff"/><path d="m258.67 463.17a12.62 12.62 0 0 0 -4.82.92c-.8-3.33-5.17-5.88-10.47-5.88a14.8 14.8 0 0 0 -1.9.12 6.24 6.24 0 0 0 1.29-3.72c0-4.73-5.84-8.57-13.05-8.57-6.81 0-12.41 3.43-13 7.8a10.77 10.77 0 0 0 -3.59-.6 9.89 9.89 0 0 0 -5.39 1.48 14.63 14.63 0 0 0 -9.55-3.15c-6.57 0-11.89 3.49-11.89 7.8-4.94.3-8.91 2.76-9.72 5.93a10.6 10.6 0 0 0 -1.81-.16c-3.94 0-7.13 2.1-7.13 4.68s3.19 4.68 7.13 4.68a9.61 9.61 0 0 0 4.47-1 6.18 6.18 0 0 0 2.77.82c.51 1.74 2.84 3.06 5.63 3.06a7.21 7.21 0 0 0 4.36-1.38 14.18 14.18 0 0 0 17.7 0c2.19 2.34 6.11 3.89 10.6 3.89 4.85 0 9-1.82 11.1-4.48a12.1 12.1 0 0 0 8.38 2.94c3.9 0 7.28-1.45 9-3.58a8.82 8.82 0 0 0 2.1.25 8.34 8.34 0 0 0 3.46-.72 13 13 0 0 0 4.34.72c5 0 9.07-2.67 9.07-5.95s-4.07-5.9-9.08-5.9z" fill="#ceecfd"/><path d="m258.29 460a12.72 12.72 0 0 0 -4.72.87c-.78-3.15-5.06-5.57-10.25-5.57-.63 0-1.25.05-1.85.11a5.74 5.74 0 0 0 1.26-3.51c0-4.48-5.71-8.11-12.77-8.11-6.66 0-12.14 3.24-12.72 7.38a10.81 10.81 0 0 0 -3.51-.56 9.88 9.88 0 0 0 -5.27 1.39 14.64 14.64 0 0 0 -9.35-3c-6.42 0-11.63 3.3-11.63 7.38-4.84.28-8.72 2.61-9.51 5.61a11.32 11.32 0 0 0 -1.77-.15c-3.86 0-7 2-7 4.43s3.12 4.43 7 4.43a9.74 9.74 0 0 0 4.37-1 6.2 6.2 0 0 0 2.71.78c.5 1.64 2.77 2.89 5.51 2.89a7.29 7.29 0 0 0 4.3-1.27 14.25 14.25 0 0 0 17.31 0c2.14 2.21 6 3.69 10.37 3.69 4.75 0 8.85-1.73 10.86-4.24a12.17 12.17 0 0 0 8.21 2.78c3.81 0 7.12-1.38 8.76-3.39a9 9 0 0 0 2.05.23 8.38 8.38 0 0 0 3.4-.68 13.18 13.18 0 0 0 4.24.68c4.9 0 8.88-2.52 8.88-5.63s-3.98-5.54-8.88-5.54z" fill="#f3fbff"/><path d="m319.89 233.6c-11.49 0-21.62-11-23-25.39a4 4 0 1 1 7.87-.74c1 10.77 8.25 18.91 16.09 18.18 3.61-.34 6.89-2.57 9.23-6.27a23.37 23.37 0 0 0 3.15-14.62 4 4 0 1 1 7.87-.75 31.25 31.25 0 0 1 -4.34 19.59c-3.68 5.82-9.07 9.34-15.16 9.92a16.63 16.63 0 0 1 -1.71.08z" fill="#663612"/><path d="m220.4 233.61a17.29 17.29 0 0 1 -1.76-.09c-12.19-1.16-20.94-14.39-19.5-29.51a4 4 0 1 1 7.87.75c-1 10.77 4.53 20.15 12.37 20.89 3.61.34 7.25-1.22 10.25-4.42a23.33 23.33 0 0 0 5.85-13.76 4 4 0 1 1 7.87.74 31.27 31.27 0 0 1 -7.95 18.43c-4.26 4.53-9.53 6.97-15 6.97z" fill="#663612"/><path d="m176.39 389.72a15.47 15.47 0 0 1 -2.87 1.13 22.59 22.59 0 0 1 -2.35.4 47 47 0 0 1 -18.47-4.19 17.33 17.33 0 0 1 -9.81-17c.37-3.64 2.46-6.25 9.36-2 .87.53 3.87 2.95 4.53 3.48.24.21 1 1 1.61 1.56.21.21.39.42.5.55 3.61 4.24 9.93-.32 7.93-4.85a4.69 4.69 0 0 0 -.58-1 5.76 5.76 0 0 0 -1.55-1.74 15 15 0 0 1 -2.69-3.27c-.05-.05-.05-.08-.08-.1-.13-.24-.26-.45-.34-.64-1.69-3.71.16-13.57 8.27-6 .5.47 1.08 1.21 1.43 1.61s1 1.21 1.71 2.16a.24.24 0 0 1 0 .1 64 64 0 0 1 4.32 6.3c4.77 7.87 8.77 18.7-.92 23.5z" fill="#fae7c6"/><path d="m377.87 389.14a46.85 46.85 0 0 1 -18.47 4.19 22.59 22.59 0 0 1 -2.35-.4 14.55 14.55 0 0 1 -2.87-1.13 12.73 12.73 0 0 1 -1.21-.69c-8.12-5.08-4.27-15.28.24-22.82l.15-.26a66.2 66.2 0 0 1 4.17-6 .18.18 0 0 1 .05-.11c.05-.05.08-.11.13-.16s0-.05.06-.08c.63-.84 1.15-1.5 1.52-1.92s.93-1.13 1.43-1.61c8.11-7.54 10 2.32 8.27 6a.54.54 0 0 1 -.1.18 2.56 2.56 0 0 1 -.21.4s0 0-.08.1a15 15 0 0 1 -2.69 3.27 5.88 5.88 0 0 0 -1.55 1.74 3.76 3.76 0 0 0 -.45.74 1.05 1.05 0 0 0 -.13.26c-2 4.53 4.32 9.09 7.93 4.85a6.56 6.56 0 0 1 .5-.55l1-1 .58-.53c.66-.52 3.66-2.95 4.53-3.48 6.9-4.24 9-1.63 9.35 2a17.32 17.32 0 0 1 -9.8 17.01z" fill="#fae7c6"/></svg>