<svg id="Layer_1" height="512" viewBox="0 0 512 512" width="512" xmlns="http://www.w3.org/2000/svg" data-name="Layer 1"><path d="m150.86 416.61c-.86 4.9 6.72 13.39 15.14 15.19l.64.13c8.56 2.79 18.44-1.83 19.39-6.66 7-36 19.64-62.42 54.35-84.79-5.71-8.75-11.07-17.51-16.49-26.41-46.74 23.93-65.4 58.57-73.03 102.54z" fill="#d38950"/><path d="m209.54 334.89c5.66-4.75 13.71-7.4 20.19-11.48-.08.17-.17-.12-.21-.17-1.55-2.34-4.16-6.64-5.25-8.46-.76-1.27 0 .06-.29-.51s.11.17-.12-.2c-46.78 23.74-65.17 58.77-73.14 102.38-.64 3.5 3.69 9.58 8.27 12.49 4.53-35.66 20.57-68.94 50.55-94.05z" fill="#de9b45"/><path d="m375.42 409.21c1.7 4.66-4.25 14.35-12.18 17.61-.1 0-.52.2-.61.25-7.93 4.26-18.48 1.45-20.27-3.14-13.28-34.15-30.36-58-68.47-73.85 4.07-9.62 7.8-19.19 11.57-28.91 50.18 15.26 74.68 46.1 89.96 88.04z" fill="#de9b45"/><path d="m303.23 339.13c-6.42-3.67-14.81-4.85-21.9-7.73.1.15.15-.14.17-.21 1.12-2.57 2.92-7.26 3.67-9.24.53-1.39 0 .07.2-.56l.08-.22c50.24 15.11 74.55 46.33 90.08 87.83 1.25 3.33-1.93 10.08-5.93 13.75-10.76-34.27-32.43-64.19-66.37-83.62z" fill="#e8aa67"/><path d="m355 448.62c4.68 2.45 8.33 1.89 10.54-.91a13.09 13.09 0 0 0 2-7.25v-1.45a13.35 13.35 0 0 0 2.55 1.22c4.19 1.46 7.56 1.2 9.7-1.69 1-1.33 1.37-5 1-7.45 2.32 1 6.66 1.5 8.21 1 3.4-1.08 6-5.45 4.28-10.89-5.37-16.81-21.79-17.31-21.79-17.31-4.85-.72-11.12.93-16.82 4.87s-9.44 9.24-10.46 14-4.1 18.08 10.79 25.86z" fill="#fae7c6"/><path d="m380.74 431.1s-9.27-7.06-11.1-16c0 0 10.1 15.91 20.68 16.3 0 .05-2.32 2.96-9.58-.3z" fill="#eac589"/><path d="m367.54 439.07s-9.27-7.07-11.1-15.95c0 0 10.62 16.86 21.21 17.26 0 0-4.03 2.53-10.11-1.31z" fill="#eac589"/><path d="m312.66 476.69a22.87 22.87 0 0 1 -4.5 6.38c-9 9.27-26.94 15.25-45.55 16.13-1.61.09-3.21.12-4.81.12s-3.08 0-4.61-.1c-18.49-.84-36.32-6.72-45.47-15.86a23.17 23.17 0 0 1 -4.79-6.67c-10.79-23.53-7.09-81.07 0-106.76a291.84 291.84 0 0 1 18.62-48.93 127.2 127.2 0 0 0 32.36 4.14c1.3 0 2.6 0 3.89-.07a126.15 126.15 0 0 0 35.26-6.05c6.94 13.81 40.54 112.04 19.6 157.67z" fill="#de9b45"/><path d="m253.74 325.21a127.65 127.65 0 0 1 -32.36-4.14 291.84 291.84 0 0 0 -18.64 48.93c-7.07 25.69-10.77 83.23 0 106.76a23 23 0 0 0 4.79 6.67c9.15 9.14 27 15 45.47 15.86 1.09.05 2.2.06 3.3.07v-174.2c-.84.02-1.7.05-2.56.05z" fill="#d38950"/><path d="m288.77 378.23c0 28.85 2.64 102.77-29.77 102.77s-29.76-73.93-29.76-102.78 13.32-52.22 29.76-52.22 29.77 23.37 29.77 52.23z" fill="#fae7c6"/><ellipse cx="257.2" cy="332.4" fill="#ce783e" opacity=".41" rx="41.51" ry="50.65" transform="matrix(.034 -.999 .999 .034 -83.84 578.04)"/><path d="m502.05 7.84s-83.55-11.42-168.05 66.28 64.74 117.31 70.36 123.48c.03 0 109.64-91.6 97.69-189.76z" fill="#ffc7d7"/><path d="m502.05 7.84s-105.45 85.28-129.22 139.72l-14.41-44.84s76.49-83.32 143.63-94.88" fill="#f9afc7"/><path d="m502.05 7.84s-79.42-12.84-168.05 66.28l27.89 40.19s45.11-66.99 140.16-106.47z" fill="#de9b45"/><path d="m502.05 7.84s-5.12 105-102.76 180.37l5.1 9.39s110.61-85.86 97.66-189.76z" fill="#de9b45"/><path d="m10 6.78s83.5-11.43 168 66.28-64.74 117.31-70.36 123.47c-.03 0-109.64-91.53-97.64-189.75z" fill="#ffc7d7"/><path d="m10 6.78s105.4 85.27 129.17 139.71l14.41-44.83s-76.49-83.32-143.58-94.88" fill="#f9afc7"/><path d="m10 6.78s79.37-12.9 168 66.28l-27.89 40.19s-45.11-66.99-140.11-106.47z" fill="#d38950"/><path d="m10 6.78s5.12 104.94 102.76 180.36l-5.1 9.39s-110.66-85.86-97.66-189.75z" fill="#d38950"/><path d="m372 114.9c-18-36.19-56.8-66.26-103.1-70.31-8-.48-8.3-.62-21.7 0-46.3 4-85.12 34.12-103.1 70.31-11 22.14-10.83 45.25-10.5 91.48.27 37.31.75 60 16.23 80.9 13.56 18.31 35.73 31.32 38.17 32.72 6 3.46 4.9 2.19 31.5 15.41 20.31 10.1 34.12 14.8 38.53 15.3 4.41-.5 18.22-5.2 38.53-15.3 26.59-13.22 25.51-11.95 31.5-15.41 2.45-1.42 24.63-14.43 38.19-32.74 15.48-20.9 16-43.59 16.23-80.9.35-46.21.52-69.36-10.48-91.46z" fill="#de9b45"/><path d="m247.2 44.59c-46.3 4-85.12 34.12-103.1 70.31-11 22.14-10.83 45.25-10.5 91.48.27 37.31.75 60 16.23 80.9 13.56 18.31 35.73 31.32 38.17 32.72 6 3.46 4.9 2.19 31.5 15.41 18.16 9 31.11 13.73 36.8 15l1.73-197.7-1.71-108.48c-2.23.06-5.07.17-9.12.36z" fill="#d38950"/><path d="m247.2 55.1c13.4-.63 13.65-.48 21.7 0 46.3 4 85.11 34.11 103.1 70.3 8.78 17.68 10.44 36 10.59 66.2.14-36.61-.84-57-10.59-76.66-18-36.18-56.8-66.25-103.1-70.3-8-.48-8.3-.63-21.7 0-46.3 4-85.12 34.12-103.1 70.3-9.75 19.64-10.73 40.05-10.59 76.65.14-30.19 1.81-48.51 10.59-66.19 17.98-36.19 56.8-66.26 103.1-70.3z" fill="#f2ad61" opacity=".16"/><path d="m314 257.9c-9.09-11.7-30-32.31-31-33.53-17.05-21.26-19.92-90.78-25.16-91.27h-.08c-5.25.49-8.12 70-25.17 91.27-1 1.22-21.91 21.83-31 33.53-10.29 14.69-11.91 29.35-7.41 40.29l15.65 38.08c6.85 16.66 24.9 28.21 45.74 29.67 0 0 1.48.14 2.23.11s2.22-.11 2.22-.11c20.84-1.46 38.89-13 45.74-29.67l15.65-38.08c4.5-10.94 2.88-25.6-7.41-40.29z" fill="#fae7c6"/><path d="m282 228.46-14.26 14.27a13.68 13.68 0 0 1 -19.34 0l-14.26-14.27a10.08 10.08 0 0 1 7.13-17.21h33.6a10.08 10.08 0 0 1 7.13 17.21z" fill="#663612"/><ellipse cx="248.08" cy="226.82" fill="#753c15" rx="5.57" ry="7.74"/><ellipse cx="268.02" cy="226.82" fill="#753c15" rx="5.57" ry="7.74"/><ellipse cx="267.52" cy="226.82" fill="#4f280e" rx="5.08" ry="7.74"/><ellipse cx="247.59" cy="226.82" fill="#4f280e" rx="5.08" ry="7.74"/><g opacity=".76"><path d="m228.9 198.89a57.58 57.58 0 1 0 -57.58 57.57 57.58 57.58 0 0 0 57.58-57.57z" fill="#cc773e"/></g><path d="m218.24 196.53a58.1 58.1 0 1 0 -58.1 58.09 58.11 58.11 0 0 0 58.1-58.09z" fill="#fff"/><path d="m102 202.7a58.15 58.15 0 0 0 116.3 0 53.64 53.64 0 0 0 -.27-5.56 58.14 58.14 0 0 1 -115.76 0c-.19 1.86-.27 3.68-.27 5.56z" fill="#f2f2f2"/><path d="m208.09 196.55a14.2 14.2 0 1 0 -11.65 11.54 14.22 14.22 0 0 0 11.65-11.54z" fill="#3e2945"/><path d="m191.41 204.31a10 10 0 1 0 -8.2 8.12 10 10 0 0 0 8.2-8.12z" fill="#fff"/><g opacity=".6"><path d="m286.37 197.6a60 60 0 1 1 60 60 60 60 0 0 1 -60-60z" fill="#cc773e"/></g><path d="m296.9 194.19a58.1 58.1 0 1 1 58.1 58.08 58.11 58.11 0 0 1 -58.1-58.08z" fill="#fff"/><path d="m413.15 200.35a58.16 58.16 0 0 1 -116.31 0 53.62 53.62 0 0 1 .28-5.56 58.14 58.14 0 0 0 115.75 0 53.62 53.62 0 0 1 .28 5.56z" fill="#f2f2f2"/><path d="m309.84 194.62a14.2 14.2 0 1 1 11.65 11.54 14.21 14.21 0 0 1 -11.65-11.54z" fill="#3e2945"/><path d="m326.53 202.38a10 10 0 1 1 8.19 8.12 10 10 0 0 1 -8.19-8.12z" fill="#fff"/><path d="m358 133.59s-49.68-19.76-52.34-25.38 12.51-18.79 22.59-14.48 35.54 25.64 34.39 33.19-4.64 6.67-4.64 6.67z" fill="#663612"/><path d="m360.45 132.62c.06-.27.11-.58.16-.9 1.15-7.56-24.32-28.88-34.39-33.19-7.09-3-16.69 2.57-20.85 8.12.15-6.14 13.67-16.87 22.9-12.92 10.08 4.31 35.54 25.64 34.39 33.19-.47 3.14-1.34 4.81-2.21 5.7z" fill="#753c15"/><path d="m166.56 113.56s49.26-20.78 51.81-26.45-12.9-18.53-22.89-14-35 26.36-33.7 33.9 4.78 6.55 4.78 6.55z" fill="#663612"/><path d="m164.11 112.65c-.07-.28-.12-.58-.18-.9-1.31-7.54 23.72-29.38 33.7-33.9 7-3.17 16.74 2.23 21 7.7-.28-6.14-14-16.59-23.17-12.45-10 4.51-35 26.37-33.7 33.89.56 3.13 1.47 4.78 2.35 5.66z" fill="#753c15"/><path d="m274.85 211.25h-33.6a9.81 9.81 0 0 0 -7.3 3.14h48.2a9.81 9.81 0 0 0 -7.3-3.14z" fill="#753c15"/><path d="m295.72 325.34c-6.23 14.36-18.15 24-38.28 17.91-14.33-4.35-24.66-16.92-31.56-31.62-15.72-33.49-13.67-78-.68-61.26a22.69 22.69 0 0 1 1.32 1.86c.26.38.52.8.79 1.24 10.43 17.2 34.82 15.81 34.82 15.81 15.39-.3 20.29-12.52 30-4.54a21 21 0 0 1 1.82 1.68c.35.35.7.72 1.06 1.12 6.91 7.71 9.53 37.46.71 57.8z" fill="#822244"/><path d="m225.88 311.63c6.9 14.7 17.23 27.27 31.56 31.62 20.13 6.1 32.05-3.56 38.28-17.91 0 0-30.67-50.52-69.84-13.71z" fill="#dd686e"/><rect fill="#3b3f4a" height="57.77" rx="1.97" width="122.24" x="98.4" y="448.23"/><rect fill="#f3c72b" height="22.06" rx=".82" width="55.62" x="131.71" y="466.09"/><path d="m119.37 433.16h80.31a8.61 8.61 0 0 1 7.14 3.81l7.54 11.26h-109.68l7.55-11.23a8.6 8.6 0 0 1 7.14-3.84z" fill="#464c5a"/><path d="m114 355.08 9.06-2.62a33.6 33.6 0 0 0 16.35-10.59l12-14.16c7.22-8.55 4.83-20.42 4.83-31.6 0 0 2.23-14.72 13.68-14.92a14 14 0 0 1 13.1 9.38c.94 2.52 1.76 13.71 1.76 13.71a201.25 201.25 0 0 1 -1.67 25.72l-1.45 11.18a4.4 4.4 0 0 0 4.48 5l51.26-1.43a14.22 14.22 0 0 1 14.23 17.51l-15.69 65.64a14.22 14.22 0 0 1 -13.83 10.91h-68.6a25.4 25.4 0 0 1 -16.51-6.07 25.36 25.36 0 0 0 -16.47-6.07h-6.53z" fill="#eab322"/><path d="m245.23 362.24-15.71 65.65a14.17 14.17 0 0 1 -13.81 10.91h-68.61a25.15 25.15 0 0 1 -10.86-2.44 24.26 24.26 0 0 1 -5.61-3.63 25.26 25.26 0 0 0 -16.47-6.05h-6.55v-71.6l9.06-2.61a33.55 33.55 0 0 0 16.33-10.6l12-14.15a47.34 47.34 0 0 0 11.19-30.58 10.75 10.75 0 0 1 10.77-10.75 10.54 10.54 0 0 1 3.1.46 11.93 11.93 0 0 1 1.9.79l.7.37a10.75 10.75 0 0 1 5.73 9.51v6.76a201.26 201.26 0 0 1 -1.69 25.72l-1.45 11.18a4.39 4.39 0 0 0 4.49 4.95l21.08-.58 16.36-.45 13.82-.39a14.22 14.22 0 0 1 14.23 17.53z" fill="#f6c72a"/><rect fill="#e9b324" height="102.88" rx="8.39" width="42.29" x="68.26" y="341.32"/><circle cx="98.4" cy="427.09" fill="#f6c72a" r="6.91"/><path d="m170 286.85-33.8 149.51a24.26 24.26 0 0 1 -5.61-3.63 25.26 25.26 0 0 0 -16.47-6.05h-3.61v-72.45l6.12-1.76a33.55 33.55 0 0 0 16.37-10.6l12-14.15a47.34 47.34 0 0 0 11.19-30.58 10.75 10.75 0 0 1 10.77-10.75 10.54 10.54 0 0 1 3.04.46z" fill="#f8d876"/><path d="m217.19 345.11-38.36 93.69h-17.04l39.03-93.24z" fill="#f8d876"/><g fill="#fff"><path d="m227.81 387.56-.68 5.75h-6.08l6.08 1.35v7.18l1.46-7.14 6.05-.59-5.99-.72z" opacity=".69"/><path d="m166.28 341.32-.68 5.74h-6.08l6.08 1.36v7.18l1.47-7.14 6.05-.6-5.99-.71z" opacity=".69"/><path d="m84.66 385.62-.68 5.75h-6.08l6.08 1.35v7.18l1.46-7.14 6.06-.6-6-.71z" opacity=".69"/><path d="m176.58 299.01-.68 5.74h-6.08l6.08 1.36v7.18l1.47-7.14 6.04-.6-5.99-.71z" opacity=".69"/></g><path d="m95.17 406.34c-6.19 4-11.6 12.16-14.06 22.28s-1.41 19.82 2.22 26.25 9.57 22.8 36.09 21.27c8.57-.5 13.3-6.52 13-11.88-.15-2.46-3.14-8.3-5.84-11 3.63-.83 8.57-3.36 9.92-5.45 2.91-4.56 1.44-9.44-2.87-14.53a19.76 19.76 0 0 0 -3.09-2.93l2.05-.74c3.66-1.15 7.87-4.55 9.13-6.67 2.74-4.62 1.56-10-4.41-15.3-18.98-16.7-42.14-1.3-42.14-1.3z" fill="#fae7c6"/><path d="m126.57 453.26s-14.92-9.21-28.4-7c0 0 27.8 5.6 34.07 20.26 0 .02 2.83-4.81-5.67-13.26z" fill="#eac589"/><path d="m130.64 430.42s-14.93-9.21-28.4-7c0 0 29.43 5.83 35.69 20.49 0 .01 1.39-7.01-7.29-13.49z" fill="#eac589"/></svg>