<svg id="Layer_1" height="512" viewBox="0 0 512 512" width="512" xmlns="http://www.w3.org/2000/svg" data-name="Layer 1"><path d="m238.88 309.41 109.75 103.05-30.55-147.4 116.69-112.98-157.27 40.57-109.71-103.08 30.54 147.43-116.73 112.93z" fill="#ceecfd"/><path d="m318.08 265.06 116.69-112.98-157.27 40.57-3.07-2.92-39.98 120.79 4.43-1.11 109.75 103.05z" fill="#ceecfd"/><path d="m251.49 314.69 151.64 58.19-103.08-125.52 1.36-4.02-126.39 14.66 2.88 3.56-47.19 142.96z" fill="#ceecfd"/><path d="m406.05 192.97 10.74 21.99 46.71-9.65-9.05-18.54 51.55-2.21-70.48-11.49 9.05 18.53z" fill="#ceecfd" fill-rule="evenodd"/><path d="m105.81 278.33-11.06-21.82-46.57 10.35 9.33 18.4-51.51 2.99 70.64 10.43-9.32-18.4z" fill="#ceecfd" fill-rule="evenodd"/><path d="m156.33 320.41c-4.49-.62-6.87 9.33-6.33 12.74v.52c.35 4.78 2.64 11.61 8.33 11.82 42.33 1.51 48.12 2.91 71.83-33.71-4.83-5.11-10.15-9.1-15.52-13.61-22.76 33.06-17.99 27.89-58.31 22.24z" fill="#d38950"/><path d="m211.91 315.14c3.36-6 4-8.28 8.2-12.78-.12.24-.18 0-.22 0-1.48-1.07-3.54-2.66-4.76-3.72-.85-.74 0-.06-.37-.34s.07.09-.1-.11c-22.7 32.72-18 28.34-58.19 22-3.23-.5-5.26 5.22-6 7.54 19.09 2.49 45.63 15.68 61.44-12.59z" fill="#de9b45"/><circle cx="248.73" cy="384.52" fill="#d38950" r="19.45"/><path d="m248.73 365.08a19.45 19.45 0 1 1 0 38.89" fill="#de9b45"/><ellipse cx="250.4" cy="432.3" fill="#7a7a7a" opacity=".44" rx="54.61" ry="9.39"/><path d="m245.93 397.57v3.33c-.11 21.41 1 26.49-11.12 30.35-11 3.51-11.79-2.94-11.79-2.94s-1.71.91-3.53-1.12c-4.66-5.17 8.22-8.21 8.22-8.21l-13.5-43.18s32.01-2.53 31.72 21.77z" fill="#d38950"/><path d="m312.79 365.72c-.12 3.09-5.8 7.27-11.13 7.29h-.41c-5.56.6-11-3.48-10.93-6.54.34-22.75-3.92-40.45-22.14-58.5 4.6-4.58 9-9.22 13.41-13.93 25.32 20.51 32.2 43.96 31.2 71.68z" fill="#de9b45"/><path d="m287.62 308.53c-2.83-3.61-7.38-6.26-10.79-9.57 0 .11.12 0 .15-.08 1.24-1.22 3.38-3.5 4.27-4.46.63-.67 0 0 .24-.28s-.08.1.1-.1c25.38 20.43 32.06 44.08 31.3 71.6-.06 2.21-3.47 5.35-6.62 6.53 1.82-22.25-3.66-44.53-18.65-63.64z" fill="#e8aa67"/><path d="m291.81 383.62c2.13 2.51 4.35 3 6.28 1.94a8.08 8.08 0 0 0 2.82-3.71l.32-.84a8 8 0 0 0 1.19 1.3c2.06 1.82 4.07 2.46 6 1.29.87-.53 2-2.55 2.33-4a10.09 10.09 0 0 0 4.49 2.49c2.21.17 4.73-1.73 5-5.27a15.29 15.29 0 0 0 -8.49-15.05c-2.63-1.55-6.62-2.07-10.82-1.13s-7.59 3.11-9.3 5.63-6.55 9.41.18 17.35z" fill="#fae7c6"/><path d="m310.73 379.57s-3.68-6.23-2.66-11.78c0 0 2.09 11.52 8.09 14.22 0-.01-2.01 1.13-5.43-2.44z" fill="#eac589"/><path d="m301.27 381.06s-3.68-6.23-2.66-11.77c0 0 2.17 12.19 8.17 14.89 0 0-2.91.52-5.51-3.12z" fill="#eac589"/><path d="m283.72 379.17a14 14 0 0 1 -2.79 4c-5.6 5.77-16.73 9.48-28.29 10-1 .06-2 .08-3 .08s-1.91 0-2.86-.06c-11.48-.53-22.55-4.18-28.24-9.85a14.22 14.22 0 0 1 -3-4.15c-6.71-14.61-4.41-33.42 0-49.38a180.93 180.93 0 0 1 11.57-30.36 79.31 79.31 0 0 0 20.1 2.57h2.41a78.15 78.15 0 0 0 21.9-3.76c4.34 8.49 25.21 52.57 12.2 80.91z" fill="#de9b45"/><path d="m247.13 302a79.36 79.36 0 0 1 -20.1-2.57 181.82 181.82 0 0 0 -11.57 30.36c-4.39 16-6.69 34.77 0 49.38a14.61 14.61 0 0 0 3 4.15c5.69 5.67 16.76 9.32 28.24 9.84.69 0 1.37 0 2 .05v-91.21c-.5 0-1.03 0-1.57 0z" fill="#d38950"/><path d="m268.89 335c0 17.92 1.64 46.9-18.49 46.9s-18.48-29-18.48-46.9 8.27-32.46 18.48-32.46 18.49 14.46 18.49 32.46z" fill="#fae7c6"/><path d="m243.78 425.26a11 11 0 0 1 -9.59 6.33s-6.73 6-12.92.31a5.2 5.2 0 0 1 -6-1s-5.18.7-4.1-5.72 12.08-7 12.08-7h4.1a41.91 41.91 0 0 1 9.21 2 15 15 0 0 1 7.22 5.08z" fill="#fae7c6"/><path d="m234.19 429.11s-6.73 5.95-12.92.31a5.2 5.2 0 0 1 -6-1s-3.5.47-4.15-2.93c-.86 6.08 4.15 5.41 4.15 5.41a5.2 5.2 0 0 0 6 1c6.19 5.65 12.92-.31 12.92-.31a11 11 0 0 0 9.59-6.33l-.34-.15a15.33 15.33 0 0 1 -9.25 4z" fill="#eac589"/><path d="m215.32 430.89s-2.39-8.79 5.66-10.06c.02 0-4.87 1.89-5.66 10.06z" fill="#eac589"/><path d="m221.32 431.85s-2.4-8.79 5.66-10.06c.02 0-4.88 1.89-5.66 10.06z" fill="#eac589"/><path d="m253.35 397.57v3.33c.11 21.41-1 26.49 11.12 30.35 11 3.51 11.8-2.94 11.8-2.94s1.7.91 3.53-1.12c4.65-5.17-8.22-8.21-8.22-8.21l13.46-43.18s-31.97-2.53-31.69 21.77z" fill="#de9b45"/><path d="m255.5 425.26a11 11 0 0 0 9.59 6.33s6.73 6 12.92.31a5.21 5.21 0 0 0 6-1s5.18.7 4.09-5.72-12.08-7-12.08-7h-4.1a41.91 41.91 0 0 0 -9.21 2 15 15 0 0 0 -7.21 5.08z" fill="#fae7c6"/><path d="m265.09 429.11s6.73 5.95 12.92.31a5.21 5.21 0 0 0 6-1s3.49.47 4.14-2.93c.86 6.08-4.14 5.41-4.14 5.41a5.21 5.21 0 0 1 -6 1c-6.19 5.65-12.92-.31-12.92-.31a11 11 0 0 1 -9.59-6.33l.34-.15a15.36 15.36 0 0 0 9.25 4z" fill="#eac589"/><path d="m284 430.89s2.39-8.79-5.67-10.06c-.03 0 4.85 1.89 5.67 10.06z" fill="#eac589"/><path d="m278 431.85s2.39-8.79-5.67-10.06c-.03 0 4.85 1.89 5.67 10.06z" fill="#eac589"/><ellipse cx="249.28" cy="306.49" fill="#ce783e" opacity=".41" rx="25.78" ry="31.46" transform="matrix(.034 -.999 .999 .034 -65.58 545.1)"/><path d="m401.35 104.91s-51.89-7.1-104.35 41.16 40.21 72.86 43.7 76.69c0 0 68.07-56.87 60.65-117.85z" fill="#ffc7d7"/><path d="m401.35 104.91s-65.49 53-80.25 86.77l-9-27.84s47.5-51.75 89.2-58.93" fill="#f9afc7"/><path d="m401.35 104.91s-49.35-8.01-104.35 41.16l17.32 25s27.99-41.64 87.03-66.16z" fill="#de9b45"/><path d="m401.35 104.91s-3.18 65.18-63.82 112l3.17 5.83s68.72-53.3 60.65-117.83z" fill="#de9b45"/><path d="m95.72 104.25s51.89-7.1 104.35 41.16-40.2 72.86-43.69 76.69c0 0-68.08-56.87-60.66-117.85z" fill="#ffc7d7"/><path d="m95.72 104.25s65.5 53 80.26 86.77l9-27.84s-47.51-51.75-89.21-58.93" fill="#f9afc7"/><path d="m95.72 104.25s49.33-8 104.35 41.16l-17.32 25s-27.99-41.64-87.03-66.16z" fill="#d38950"/><path d="m95.72 104.25s3.18 65.18 63.83 112l-3.17 5.83s-68.72-53.31-60.66-117.83z" fill="#d38950"/><path d="m320.58 171.4c-11.17-22.48-35.27-41.15-64-43.66a84.93 84.93 0 0 0 -13.48 0c-28.76 2.51-52.86 21.18-64 43.66-6.83 13.75-6.73 28.11-6.52 56.82.17 23.17.46 37.26 10.08 50.24 8.42 11.37 22.19 19.46 23.71 20.34 3.72 2.14 3.05 1.35 19.57 9.57 12.61 6.27 21.19 9.19 23.93 9.5 2.74-.31 11.31-3.23 23.93-9.5 16.52-8.22 15.85-7.43 19.57-9.57 1.52-.88 15.29-9 23.71-20.34 9.62-13 9.91-27.07 10.08-50.24.15-28.71.25-43.07-6.58-56.82z" fill="#de9b45"/><path d="m243.07 127.74c-28.76 2.51-52.86 21.18-64 43.66-6.83 13.75-6.73 28.11-6.52 56.82.17 23.17.46 37.26 10.08 50.24 8.42 11.37 22.19 19.46 23.71 20.34 3.72 2.14 3.05 1.35 19.57 9.57 11.28 5.61 19.32 8.53 22.85 9.31l1.08-122.79-1.08-67.38c-1.41.03-3.17.11-5.69.23z" fill="#d38950"/><path d="m243.07 134.26a84.93 84.93 0 0 1 13.48 0c28.76 2.51 52.86 21.19 64 43.66 5.46 11 6.49 22.36 6.58 41.12.08-22.74-.52-35.42-6.58-47.61-11.17-22.48-35.27-41.15-64-43.66a84.93 84.93 0 0 0 -13.48 0c-28.76 2.51-52.86 21.18-64 43.66-6.06 12.19-6.66 24.87-6.58 47.6.09-18.75 1.12-30.13 6.58-41.11 11.14-22.47 35.24-41.15 64-43.66z" fill="#f2ad61" opacity=".16"/><path d="m284.56 260.22c-5.65-7.27-18.64-20.07-19.25-20.83-10.6-13.21-12.38-56.38-15.63-56.69h-.05c-3.26.31-5 43.48-15.63 56.69-.61.76-13.61 13.56-19.26 20.83-6.39 9.12-7.39 18.22-4.6 25l9.72 23.65c4.26 10.34 15.47 17.52 28.41 18.42 0 0 .92.09 1.38.08s1.39-.08 1.39-.08c12.94-.9 24.15-8.08 28.4-18.42l9.72-23.65c2.84-6.78 1.84-15.88-4.6-25z" fill="#fae7c6"/><path d="m264.67 241.93-8.86 8.86a8.49 8.49 0 0 1 -12 0l-8.81-8.86a6.26 6.26 0 0 1 4.43-10.69h20.86a6.26 6.26 0 0 1 4.38 10.69z" fill="#663612"/><ellipse cx="243.62" cy="240.91" fill="#753c15" rx="3.46" ry="4.81"/><ellipse cx="256" cy="240.91" fill="#753c15" rx="3.46" ry="4.81"/><ellipse cx="255.69" cy="240.91" fill="#4f280e" rx="3.15" ry="4.81"/><ellipse cx="243.31" cy="240.91" fill="#4f280e" rx="3.15" ry="4.81"/><g opacity=".76"><path d="m231.71 223.56a35.77 35.77 0 1 0 -35.77 35.76 35.77 35.77 0 0 0 35.77-35.76z" fill="#cc773e"/></g><path d="m225.08 222.1a36.08 36.08 0 1 0 -36.08 36.08 36.08 36.08 0 0 0 36.08-36.08z" fill="#fff"/><path d="m152.88 225.93a36.12 36.12 0 0 0 72.24 0 32.8 32.8 0 0 0 -.17-3.45 36.11 36.11 0 0 1 -71.9 0c-.11 1.13-.17 2.29-.17 3.45z" fill="#f2f2f2"/><path d="m217.53 222a5.75 5.75 0 1 0 -4.72 4.67 5.75 5.75 0 0 0 4.72-4.67z" fill="#3e2945"/><path d="m210.77 225.18a4 4 0 1 0 -3.32 3.29 4 4 0 0 0 3.32-3.29z" fill="#fff"/><g opacity=".6"><path d="m267.4 222.76a37.26 37.26 0 1 1 37.26 37.24 37.26 37.26 0 0 1 -37.26-37.24z" fill="#cc773e"/></g><path d="m273.94 220.64a36.08 36.08 0 1 1 36.06 36.08 36.08 36.08 0 0 1 -36.06-36.08z" fill="#fff"/><path d="m346.14 224.47a36.12 36.12 0 0 1 -72.24 0c0-1.16.06-2.32.17-3.45a36.11 36.11 0 0 0 71.9 0c.11 1.13.17 2.29.17 3.45z" fill="#f2f2f2"/><path d="m282 221.88a5.47 5.47 0 1 1 4.49 4.45 5.47 5.47 0 0 1 -4.49-4.45z" fill="#3e2945"/><path d="m288.46 224.87a3.84 3.84 0 1 1 3.15 3.12 3.84 3.84 0 0 1 -3.15-3.12z" fill="#fff"/><path d="m260.24 231.24h-20.86a6.12 6.12 0 0 0 -4.54 1.95h29.94a6.12 6.12 0 0 0 -4.54-1.95z" fill="#753c15"/><path d="m228.31 274.6c4.17-.86 10.62-2.17 15.77-1.32l-2.08 2.38-7.15 9.71a.74.74 0 0 1 -1.25-.11z" fill="#fff"/><path d="m258.59 279.42-2.56 1-8.6 8.47a.81.81 0 0 1 -1.34-.34l-4.24-14.71c5-2.23 11 1.91 14.38 4.25.21.18 2.12 1.22 2.36 1.33z" fill="#fff"/><path d="m266.94 286.21-8.52 7.72a.58.58 0 0 1 -.89-.42l-1.53-13.06-.84-3.05a30.92 30.92 0 0 1 2.85 1.73c1.92 1.33 2.88 2 4.72 3.15 2.12 1.3 2.36 2.2 4.21 3.93z" fill="#fff"/><path d="m223.23 276.9s34.28-12 46.09 18.27c0 0-5.48-43.42-46.09-18.27z" fill="#822244"/><path d="m305.23 410.7a75 75 0 0 1 -44.23-68.4v-7.76a3.68 3.68 0 0 1 3.28-3.64 27.92 27.92 0 0 0 20.41-12.9l2.85-4.56h35.38l2.86 4.56a27.92 27.92 0 0 0 20.4 12.94 3.68 3.68 0 0 1 3.28 3.64v7.76a75 75 0 0 1 -44.23 68.4zm0 0" fill="#d1cecd"/><path d="m305.23 400.86a66.29 66.29 0 0 1 -35.38-58.56v-3.43a36.56 36.56 0 0 0 22.34-16.22l.26-.4h25.55l.25.4a36.58 36.58 0 0 0 22.34 16.22v3.43a66.25 66.25 0 0 1 -35.38 58.56zm0 0" fill="#3f3f44" opacity=".21"/><g fill="#e5dddc"><path d="m291.97 333.3h4.42v4.42h-4.42z"/><path d="m314.08 333.3h4.42v4.42h-4.42z"/><path d="m303.02 388.58h4.42v4.42h-4.42z"/><path d="m280.91 359.84h4.42v4.42h-4.42z"/><path d="m289.76 375.32h4.42v4.42h-4.42z"/><path d="m329.56 344.36h4.42v4.42h-4.42z"/><path d="m277.82 344.36h4.42v4.42h-4.42z"/><path d="m325.14 359.84h4.42v4.42h-4.42z"/><path d="m316.29 375.32h4.42v4.42h-4.42z"/></g><path d="m119.19 190.39a3.14 3.14 0 0 1 .36-2l7.59-13.83a3.11 3.11 0 0 1 2.32-1.61 3.15 3.15 0 0 1 2.67.89l11.16 11.16a3.12 3.12 0 0 1 .89 1.79l17.12 119.87a3.16 3.16 0 0 1 -2.68 3.57l-18.75 2.68a3.17 3.17 0 0 1 -3.57-2.68z" fill="#ccd1d9"/><path d="m127.14 174.59-7.59 13.83a3.14 3.14 0 0 0 -.36 2l17.11 119.81a3.17 3.17 0 0 0 3.57 2.68l18.75-2.68a3.16 3.16 0 0 0 2.68-3.57l-17.12-119.84a3.12 3.12 0 0 0 -.89-1.79l-11.16-11.16a3.15 3.15 0 0 0 -2.67-.89 3.11 3.11 0 0 0 -2.32 1.61zm2.76 1.52 11.16 11.15 17.11 119.85-18.74 2.68-17.12-119.85z" fill="#fff" opacity=".2" isolation="isolate"/><path d="m149.25 311.57a3.16 3.16 0 0 0 2.68-3.57l-13.86-97a3.15 3.15 0 1 0 -6.24.89l13.84 97a3.17 3.17 0 0 0 3.58 2.68z" fill="#aab2bc"/><path d="m147.36 314 5.12-.73a1.73 1.73 0 0 1 1.28.32 1.8 1.8 0 0 1 .67 1.14l2.57 17.86a1.73 1.73 0 0 1 -1.46 2l-5.11.73a1.72 1.72 0 0 1 -1.95-1.46l-2.55-17.89a1.72 1.72 0 0 1 1.43-1.97z" fill="#aab2bc"/><path d="m151.87 327.24a6 6 0 1 1 -5.11 6.81 6 6 0 0 1 5.11-6.81z" fill="#d1cecd"/><path d="m146.84 320.4h8.61v3.44h-8.61z" fill="#fff" opacity=".2" transform="matrix(.99 -.14 .14 .99 -44.01 24.6)" isolation="isolate"/><path d="m136.32 319.17 28.22-4a2.38 2.38 0 0 0 2-1.93l1.35-7.39a2.38 2.38 0 0 0 -2.68-2.77l-32.92 4.7a2.34 2.34 0 0 0 -1.77 1.25 2.38 2.38 0 0 0 0 2.16l3.36 6.72a2.38 2.38 0 0 0 2.44 1.26z" fill="#d1cecd"/><path d="m163.49 340.69c1.42-2.52 1.83-6.31.86-10.27s-3.08-7.13-5.5-8.7a14.5 14.5 0 0 0 -16.35-.87c-2.89 1.72-3.44 4.66-2.37 6.46a9.59 9.59 0 0 0 4 2.77c-1.11.94-2.37 2.71-2.45 3.68-.19 2.1 1.2 3.53 3.61 4.52a7.42 7.42 0 0 0 1.6.46l-.58.63a7.66 7.66 0 0 0 -2 4c-.12 2.1 1.27 3.76 4.29 4.51 9.64 2.33 14.89-7.19 14.89-7.19z" fill="#fae7c6"/><path d="m144.14 330.08s6.84.5 11.11-2.7c0 0-10.65 3.07-15.47-.89 0 0-.11 2.19 4.36 3.59z" fill="#eac589"/><path d="m146.85 338.74s6.84.5 11.11-2.7c0 0-11.26 3.28-16.08-.67 0 0 .79 2.68 4.97 3.37z" fill="#eac589"/><path d="m342.25 203.16-68.37 17.14a30.28 30.28 0 0 1 0-3.43c0-17.84 16.06-32.3 35.86-32.3 14.4 0 26.79 7.61 32.51 18.59z" fill="#cc773e"/><path d="m156.44 204.61 68.56 17.15a28.08 28.08 0 0 0 0-3.43c0-17.84-16.12-32.3-36-32.3-14.38-.03-26.82 7.6-32.56 18.58z" fill="#cc773e"/><path d="m307.26 182.23s-25.38 21.41-29.26 21.22-6.62-12.36-1.31-16.61 24.46-12 28.26-9.11 2.31 4.5 2.31 4.5z" fill="#663612"/><path d="m307.44 180.62a4.43 4.43 0 0 0 -.45-.36c-3.8-2.84-22.94 4.85-28.25 9.11-3.74 3-3.48 9.89-1.66 13.8-3.32-1.89-5.23-12.44-.37-16.33 5.32-4.26 24.46-12 28.26-9.11a6.29 6.29 0 0 1 2.47 2.89z" fill="#753c15"/><path d="m191.11 183.67s25.36 21.43 29.21 21.25 6.64-12.35 1.33-16.61-24.45-12-28.25-9.13-2.29 4.49-2.29 4.49z" fill="#663612"/><path d="m190.92 182.06c.14-.12.29-.23.45-.35 3.81-2.85 22.94 4.87 28.25 9.13 3.73 3 3.47 9.89 1.65 13.8 3.32-1.88 5.24-12.43.38-16.33-5.31-4.26-24.45-12-28.25-9.13a6.34 6.34 0 0 0 -2.48 2.88z" fill="#753c15"/><path d="m315.47 160.34c-13.75-13.78-39.59-20.63-65.38-20.58h-.09c-25.54.07-51.28 6.68-64.91 20.32 0 0 4.42-26.82-4.18-45.37.89 1.75 11.33 21.61 24.78 19 13.13-2.52 8.52-30.35 7.85-34 .67 3.4 5.91 27.58 20.88 25.64 10-1.3 14-27.57 15.32-46.69 0-.69.09-1.35.13-2 .27-4 .39-6.4.39-6.4s3.51 53.41 16.2 55.06c15 1.94 20.21-22.24 20.87-25.64-.67 3.67-5.27 31.5 7.86 34 13.45 2.57 23.89-17.29 24.78-19-8.64 18.58-4.5 45.66-4.5 45.66z" fill="#fec93d"/><path d="m315.47 160.34c-13.75-13.78-39.59-20.63-65.38-20.58h-.09l-.26-61.08c0-.69.09-1.35.13-2 .27-4 .39-6.4.39-6.4s3.51 53.41 16.2 55.06c15 1.94 20.21-22.24 20.87-25.64-.67 3.67-5.27 31.5 7.86 34 13.45 2.57 23.89-17.29 24.78-19-8.64 18.56-4.5 45.64-4.5 45.64z" fill="#fcb215"/><path d="m254.3 122.7c0 6-1.75 10.86-3.9 10.86a1.12 1.12 0 0 1 -.32 0c-2-.46-3.58-5.13-3.58-10.82s1.57-10.37 3.58-10.83a1.12 1.12 0 0 1 .32 0c2.15-.08 3.9 4.79 3.9 10.79z" fill="#bb2424"/><path d="m254.3 122.7c0 6-1.75 10.86-3.9 10.86a1.12 1.12 0 0 1 -.32 0v-21.69a1.12 1.12 0 0 1 .32 0c2.15-.04 3.9 4.83 3.9 10.83z" fill="#9b1010"/><path d="m282.8 131.37c-1.09 4.25-3.19 7.4-4.74 7.2a.58.58 0 0 1 -.14 0c-1.57-.4-1.93-4.27-.8-8.63s3.3-7.58 4.88-7.18a.67.67 0 0 1 .23.1c1.36.68 1.63 4.37.57 8.51z" fill="#bb2424"/><path d="m282.8 131.37c-1.09 4.25-3.19 7.4-4.74 7.2l4.17-15.74c1.36.71 1.63 4.4.57 8.54z" fill="#9b1010"/><path d="m217.55 131.37c1.09 4.25 3.19 7.4 4.74 7.2a.58.58 0 0 0 .14 0c1.57-.4 1.93-4.27.8-8.63s-3.31-7.58-4.88-7.18a.82.82 0 0 0 -.24.1c-1.36.68-1.63 4.37-.56 8.51z" fill="#bb2424"/><path d="m217.55 131.37c1.09 4.25 3.19 7.4 4.74 7.2l-4.18-15.74c-1.36.71-1.63 4.4-.56 8.54z" fill="#9b1010"/></svg>