<svg id="Layer_1" height="512" viewBox="0 0 512 512" width="512" xmlns="http://www.w3.org/2000/svg" data-name="Layer 1"><path d="m130.32 237.45-14.61-25.53 7.31-22.81 8.35 6.1z" fill="#ffc7d7"/><path d="m103.79 219.07 18.36-21.65 4.59 36.13z" fill="#ffc7d7"/><path d="m116.36 224.37s10.54 7.95 11.73 8.77v7.41a85.65 85.65 0 0 1 -15.26-10.05z" fill="#d38950"/><path d="m110.45 219.78 8.48 6.52-3.13 6.57-6.48-5.02z" fill="#d38950"/><path d="m45.07 101.9s55.8-7.63 112.21 44.26-42.95 73.09-46.7 77.21c0 0-73.49-55.9-65.51-121.47z" fill="#ffc7d7"/><path d="m45.07 101.9s70.42 56.95 86.29 93.3l9.64-29.94s-51.09-55.64-95.93-63.36" fill="#f9afc7"/><path d="m45.07 101.9s53-8.61 112.21 44.26l-18.63 26.84s-30.09-44.73-93.58-71.1z" fill="#d38950"/><path d="m45.07 101.9s3.42 70.1 68.63 120.45l-3.41 6.27s-73.89-57.34-65.22-126.72z" fill="#d38950"/><path d="m284.87 236.76 14.62-25.53-7.31-22.81-8.35 6.09z" fill="#ffc7d7"/><path d="m311.4 218.38-18.35-21.66-4.59 36.14z" fill="#ffc7d7"/><path d="m298.83 223.68s-10.53 7.94-11.73 8.77v7.4a85.93 85.93 0 0 0 15.26-10l-3.53-6.13" fill="#de9b45"/><path d="m304.75 219.09-8.48 6.52 3.13 6.57 6.47-5.02z" fill="#de9b45"/><path d="m370.12 101.21s-55.79-7.63-112.2 44.26 42.94 73.08 46.7 77.2c0 0 73.48-55.89 65.5-121.46z" fill="#ffc7d7"/><path d="m370.12 101.21s-70.42 57-86.29 93.3l-9.63-29.94s51.09-55.64 95.92-63.36" fill="#f9afc7"/><path d="m370.12 101.21s-53-8.61-112.2 44.26l18.63 26.84s30.09-44.73 93.57-71.1z" fill="#de9b45"/><path d="m370.12 101.21s-3.42 70.08-68.62 120.45l3.4 6.27s73.89-57.34 65.22-126.72z" fill="#de9b45"/><circle cx="206.7" cy="398.29" fill="#d38950" r="20.67"/><path d="m206.7 377.62a20.67 20.67 0 1 1 0 41.33" fill="#de9b45"/><ellipse cx="208.48" cy="449.06" fill="#7a7a7a" opacity=".44" rx="58.04" ry="9.98"/><path d="m203.72 412.15q0 1.85 0 3.54c-.11 22.75 1 28.15-11.82 32.26-11.67 3.73-12.53-3.12-12.53-3.12s-1.81 1-3.75-1.19c-5-5.5 8.73-8.74 8.73-8.74l-14.35-45.9s34-2.68 33.72 23.15z" fill="#d38950"/><path d="m127.57 366.05c-1.12 3.08 2.81 9.47 8.05 11.63l.4.15c5.23 2.82 12.2 1 13.37-2.06 8.77-22.54 20-38.26 45.21-48.75-2.7-6.35-5.15-12.67-7.64-19.08-33.13 10.06-49.3 30.42-59.39 58.11z" fill="#d38950"/><path d="m175.23 319.79c4.23-2.42 9.77-3.2 14.45-5.1-.07.1-.09-.1-.11-.14-.74-1.7-1.93-4.79-2.43-6.1-.34-.92 0 0-.12-.37s0 .12-.06-.15c-33.16 10-49.2 30.59-59.46 58-.82 2.2 1.28 6.66 3.92 9.08 7.1-22.65 21.4-42.4 43.81-55.22z" fill="#de9b45"/><path d="m285.32 366.05c1.12 3.08-2.8 9.47-8 11.63l-.4.15c-5.24 2.82-12.2 1-13.38-2.06-8.77-22.54-20-38.26-45.2-48.75 2.69-6.35 5.15-12.67 7.64-19.08 33.09 10.06 49.25 30.42 59.34 58.11z" fill="#de9b45"/><path d="m237.67 319.79c-4.24-2.42-9.77-3.2-14.46-5.1.07.1.1-.1.12-.14.74-1.7 1.92-4.79 2.42-6.1.35-.92 0 0 .13-.37s0 .12.05-.15c33.17 10 49.2 30.59 59.47 58 .82 2.2-1.28 6.66-3.92 9.08-7.1-22.65-21.41-42.4-43.81-55.22z" fill="#e8aa67"/><path d="m271.83 392.06c3.09 1.62 5.5 1.25 7-.6a8.58 8.58 0 0 0 1.29-4.79v-1a8.5 8.5 0 0 0 1.69.81c2.76 1 5 .79 6.4-1.11.64-.88.9-3.3.67-4.92a10.77 10.77 0 0 0 5.42.66c2.25-.72 4-3.6 2.82-7.19a16.26 16.26 0 0 0 -14.38-11.43c-3.2-.47-7.34.62-11.1 3.22s-6.23 6.09-6.91 9.26-2.73 11.96 7.1 17.09z" fill="#fae7c6"/><path d="m288.83 380.5s-6.12-4.66-7.33-10.53c0 0 6.67 10.5 13.66 10.76 0 0-1.53 1.92-6.33-.23z" fill="#eac589"/><path d="m280.12 385.76s-6.12-4.67-7.33-10.53c0 0 7 11.13 14 11.39 0 0-2.65 1.67-6.67-.86z" fill="#eac589"/><path d="m151 373.35c-1-3.08-3.83-6.29-7.83-8.49s-8.24-2.86-11.38-2.05a16.27 16.27 0 0 0 -13.11 12.86c-.77 3.69 1.24 6.38 3.55 6.86a10.77 10.77 0 0 0 5.33-1.22c-.06 1.63.44 4 1.18 4.82 1.59 1.75 3.83 1.69 6.48.44a8.48 8.48 0 0 0 1.59-1l.08 1a8.6 8.6 0 0 0 1.79 4.63c1.64 1.69 4.07 1.8 7-.13 9.19-6.15 5.32-17.72 5.32-17.72z" fill="#fae7c6"/><path d="m127.54 381.31s5.6-5.27 6.19-11.23c0 0-5.54 11.13-12.46 12.12 0 0 1.73 1.8 6.27-.89z" fill="#eac589"/><path d="m136.75 385.63s5.6-5.27 6.19-11.23c0 0-5.82 11.8-12.74 12.79 0 0 2.8 1.38 6.55-1.56z" fill="#eac589"/><path d="m243.89 392.6a14.85 14.85 0 0 1 -3 4.21c-5.95 6.12-17.78 10.07-30.07 10.65-1 .06-2.11.08-3.17.08s-2 0-3-.07c-12.21-.55-24-4.43-30-10.46a15.52 15.52 0 0 1 -3.16-4.41c-7.12-15.53-4.68-35.52 0-52.48a192.84 192.84 0 0 1 12.3-32.27 84.08 84.08 0 0 0 21.36 2.73c.86 0 1.72 0 2.57-.05a83 83 0 0 0 23.28-4c4.54 9.1 26.71 55.95 12.89 86.07z" fill="#de9b45"/><path d="m205 310.6a84.08 84.08 0 0 1 -21.36-2.73 192.84 192.84 0 0 0 -12.3 32.27c-4.67 17-7.11 36.95 0 52.48a15.32 15.32 0 0 0 3.16 4.41c6.05 6 17.81 9.9 30 10.46.73 0 1.46 0 2.18.05v-97c-.54.04-1.11.06-1.68.06z" fill="#d38950"/><path d="m228.12 345.6c0 19 1.75 49.85-19.64 49.85s-19.65-30.81-19.65-49.85 8.8-34.49 19.65-34.49 19.64 15.44 19.64 34.49z" fill="#fae7c6"/><path d="m201.44 441.58a11.73 11.73 0 0 1 -10.2 6.73s-7.15 6.33-13.72.33a5.53 5.53 0 0 1 -6.33-1.07s-5.51.74-4.36-6.08 12.84-7.49 12.84-7.49h4.33a44.57 44.57 0 0 1 9.79 2.1 16 16 0 0 1 7.65 5.48z" fill="#fae7c6"/><path d="m191.24 445.67s-7.15 6.33-13.72.33a5.53 5.53 0 0 1 -6.33-1.07s-3.72.5-4.41-3.11c-.91 6.46 4.41 5.75 4.41 5.75a5.53 5.53 0 0 0 6.33 1.07c6.57 6 13.72-.33 13.72-.33a11.73 11.73 0 0 0 10.2-6.73l-.36-.16a16.38 16.38 0 0 1 -9.84 4.25z" fill="#eac589"/><path d="m171.19 447.57s-2.54-9.35 6-10.7c.02 0-5.19 2.02-6 10.7z" fill="#eac589"/><path d="m177.56 448.59s-2.54-9.35 6-10.7c.03 0-5.16 2.01-6 10.7z" fill="#eac589"/><path d="m211.61 412.15q0 1.85 0 3.54c.12 22.75-1 28.15 11.82 32.26 11.67 3.73 12.54-3.12 12.54-3.12s1.81 1 3.75-1.19c4.95-5.5-8.74-8.74-8.74-8.74l14.34-45.9s-34.01-2.68-33.71 23.15z" fill="#de9b45"/><path d="m213.9 441.58a11.73 11.73 0 0 0 10.19 6.73s7.15 6.33 13.73.33a5.53 5.53 0 0 0 6.33-1.07s5.51.74 4.35-6.08-12.84-7.49-12.84-7.49h-4.35a44.57 44.57 0 0 0 -9.79 2.1 15.94 15.94 0 0 0 -7.62 5.48z" fill="#fae7c6"/><path d="m224.09 445.67s7.15 6.33 13.73.33a5.53 5.53 0 0 0 6.33-1.07s3.72.5 4.4-3.11c.92 6.46-4.4 5.75-4.4 5.75a5.53 5.53 0 0 1 -6.33 1.07c-6.58 6-13.73-.33-13.73-.33a11.73 11.73 0 0 1 -10.19-6.73l.36-.16a16.34 16.34 0 0 0 9.83 4.25z" fill="#eac589"/><path d="m244.15 447.57s2.54-9.35-6-10.7c-.02 0 5.16 2.02 6 10.7z" fill="#eac589"/><path d="m237.77 448.59s2.54-9.35-6-10.7c-.02 0 5.16 2.01 6 10.7z" fill="#eac589"/><ellipse cx="207.29" cy="315.35" fill="#ce783e" opacity=".41" rx="27.4" ry="33.44" transform="matrix(.034 -.999 .999 .034 -114.99 511.69)"/><path d="m283.06 171.78c-11.87-23.89-37.49-43.78-68.06-46.41-5.31-.32-5.48-.41-14.32 0-30.57 2.67-56.19 22.52-68.06 46.41-7.26 14.61-7.15 29.87-6.93 60.38.18 24.63.49 39.61 10.71 53.4 9 12.09 23.59 20.68 25.21 21.61 3.95 2.29 3.24 1.45 20.79 10.18 13.41 6.66 22.53 9.76 25.44 10.1 2.91-.34 12-3.44 25.43-10.1 17.55-8.73 16.84-7.89 20.79-10.18 1.62-.93 16.26-9.52 25.21-21.61 10.22-13.79 10.53-28.77 10.71-53.4.23-30.51.34-45.77-6.92-60.38z" fill="#de9b45"/><path d="m200.69 125.37c-30.57 2.67-56.19 22.52-68.06 46.4-7.26 14.62-7.15 29.88-6.93 60.39.18 24.63.49 39.61 10.71 53.4 9 12.09 23.59 20.68 25.21 21.61 3.95 2.29 3.24 1.45 20.79 10.18 12 6 20.54 9.06 24.29 9.89l1.15-130.49-1.15-71.62c-1.47.04-3.34.12-6.01.24z" fill="#d38950"/><path d="m200.69 132.3c8.84-.41 9-.31 14.32 0 30.56 2.67 56.18 22.52 68.05 46.41 5.8 11.67 6.9 23.76 7 43.7.09-24.17-.55-37.64-7-50.6-11.87-23.89-37.49-43.74-68.05-46.41-5.31-.31-5.48-.41-14.32 0-30.57 2.67-56.19 22.52-68.06 46.41-6.44 13-7.08 26.43-7 50.59.09-19.93 1.19-32 7-43.69 11.87-23.89 37.49-43.71 68.06-46.41z" fill="#f2ad61" opacity=".16"/><path d="m244.78 266.17c-6-7.72-19.81-21.33-20.46-22.14-11.26-14-13.15-59.91-16.61-60.24h-.06c-3.46.33-5.35 46.21-16.65 60.21-.65.81-14.46 14.42-20.46 22.14-6.79 9.7-7.86 19.37-4.9 26.6l10.36 25.16c4.52 11 16.43 18.62 30.19 19.58a13.55 13.55 0 0 0 2.94 0c13.75-1 25.67-8.58 30.19-19.58l10.33-25.13c2.99-7.23 1.92-16.9-4.87-26.6z" fill="#fae7c6"/><path d="m223.64 211.52-9.41 9.41a9 9 0 0 1 -12.77 0l-9.41-9.41a6.66 6.66 0 0 1 4.71-11.37h22.18a6.66 6.66 0 0 1 4.7 11.37z" fill="#663612"/><ellipse cx="201.27" cy="210.43" fill="#753c15" rx="3.68" ry="5.11"/><ellipse cx="214.43" cy="210.43" fill="#753c15" rx="3.68" ry="5.11"/><ellipse cx="214.1" cy="210.43" fill="#4f280e" rx="3.35" ry="5.11"/><ellipse cx="200.94" cy="210.43" fill="#4f280e" rx="3.35" ry="5.11"/><path d="m260.68 179.77s-28.2-21.22-28.93-25.25 11.23-9.8 16.9-5.3 18.18 22.5 16.14 27.11-4.11 3.44-4.11 3.44z" fill="#663612"/><path d="m262.39 179.58c.09-.17.18-.36.26-.55 2.05-4.62-10.47-22.62-16.14-27.11-4-3.17-11.07-1.26-14.68 1.55 1.16-3.89 11.64-8.37 16.83-4.25 5.66 4.49 18.18 22.5 16.13 27.11a6.74 6.74 0 0 1 -2.4 3.25z" fill="#753c15"/><path d="m150.58 175.27s29.89-18.76 30.95-22.72-10.36-10.71-16.39-6.71-20 20.89-18.36 25.66 3.8 3.77 3.8 3.77z" fill="#663612"/><path d="m148.89 174.94-.21-.57c-1.68-4.77 12.32-21.66 18.32-25.66 4.24-2.81 11.15-.32 14.51 2.79-.83-4-10.9-9.32-16.41-5.66-6 4-20 20.9-18.36 25.66a6.76 6.76 0 0 0 2.15 3.44z" fill="#753c15"/><path d="m218.94 200.15h-22.18a6.47 6.47 0 0 0 -4.82 2.08h31.82a6.49 6.49 0 0 0 -4.82-2.08z" fill="#753c15"/><path d="m244.91 302a25.2 25.2 0 0 1 -2.32-2.25c-.05 0-.08-.07-.13-.12a24.1 24.1 0 0 0 -6.54-5c-13.4-7.14-32.84-3.87-32.84-3.87-16 2.22-21.46 12.22-31.22 8.95a15.22 15.22 0 0 1 -2.06-.87 20.12 20.12 0 0 1 -2.25-1.32c-.34-.21-.69-.46-1.05-.71-8-5.72-11.93-31.1-2.82-49.9 6.42-13.29 19.36-23.28 42-20.78 16.11 1.78 28.06 11.24 36.28 23 18.74 26.72 18.04 65.52 2.95 52.87z" fill="#822244"/><path d="m224.43 263.1a6.34 6.34 0 0 0 -.3-.83c-.62-1.42-2.8-5.7-6-4.79a4.43 4.43 0 0 0 -2.48 2.18c-1.24 2.2-4.47 7.23-8.28 7.9h-.07-.07c-3.81-.67-7-5.7-8.27-7.9a4.42 4.42 0 0 0 -2.49-2.18c-3.17-.91-5.34 3.38-6 4.79a8.15 8.15 0 0 0 -.29.83c-3.12 11.07 4.86 16.17 8.09 17.74a3.71 3.71 0 0 0 2.47.28l6.53-1.56 6.53 1.56a3.71 3.71 0 0 0 2.47-.28c3.3-1.57 11.27-6.67 8.16-17.74z" fill="#3d0b0b"/><path d="m235.92 294.57c-13.4-7.14-32.84-3.87-32.84-3.87-16 2.22-21.46 12.22-31.22 8.95 28.63-37.57 52.41-19.32 64.06-5.08z" fill="#dd686e"/><path d="m184.4 198.37s-21.72-22.17-46.85-11.37c0 0 19.4 0 31.75 7.91 0 0-20.2 1.84-25.67 14.54 0-.04 20.47-12.51 40.77-11.08z" fill="#663612"/><path d="m231.37 200s21.37-21.81 46.07-11.22c0 0-19.07 0-31.22 7.78 0 0 19.87 1.8 25.25 14.3 0-.03-20.13-12.3-40.1-10.86z" fill="#663612"/><g fill="#9fe4ff"><path d="m110.79 239.35c-7.56 1.25-14.19-.81-14.81-4.59s5-7.86 12.56-9.1 27 2.61 27 2.61-17.19 9.84-24.75 11.08z"/><path d="m112.65 268.12c-6.7 5.75-14.46 7.7-17.34 4.35s.23-10.73 6.93-16.48 28.08-13.58 28.08-13.58-10.97 19.96-17.67 25.71z"/><path d="m83.5 316.91c-6.16 6.32-13.72 9-16.88 5.88s-.74-10.71 5.42-17 26.76-16 26.76-16-9.14 20.79-15.3 27.12z"/><path d="m57.54 265c-7.89 4-15.89 4-17.88.06s2.79-10.36 10.67-14.34 30.52-6.45 30.52-6.45-15.43 16.73-23.31 20.73z"/><path d="m13 294.64c-2.88 1.72-5.91 1.94-6.77.5s.78-4 3.66-5.72 11.4-3.25 11.4-3.25-5.41 6.75-8.29 8.47z"/><path d="m60.06 355.89c-3.11 4.58-7.49 7-9.78 5.48s-1.63-6.53 1.49-11.12 14.77-12.83 14.77-12.83-3.36 13.89-6.48 18.47z"/><path d="m308 240.57c7.56 1.24 14.19-.82 14.81-4.6s-5-7.85-12.57-9.09-26.94 2.61-26.94 2.61 17.14 9.84 24.7 11.08z"/><path d="m306.14 269.34c6.7 5.75 14.46 7.69 17.34 4.34s-.23-10.72-6.93-16.48-28.09-13.57-28.09-13.57 10.98 19.95 17.68 25.71z"/><path d="m335.29 318.12c6.16 6.33 13.71 9 16.88 5.88s.73-10.7-5.43-17-26.76-16-26.76-16 9.15 20.8 15.31 27.12z"/><path d="m361.25 266.21c7.88 4 15.89 4 17.88.07s-2.79-10.36-10.67-14.34-30.53-6.45-30.53-6.45 15.44 16.74 23.32 20.72z"/><path d="m405.79 295.86c2.88 1.71 5.91 1.94 6.77.5s-.78-4-3.66-5.72-11.4-3.26-11.4-3.26 5.41 6.76 8.29 8.48z"/><path d="m358.72 357.11c3.12 4.58 7.5 7 9.79 5.48s1.62-6.54-1.49-11.12-14.78-12.83-14.78-12.83 3.37 13.88 6.48 18.47z"/></g><path d="m486.61 79.89a34.15 34.15 0 0 0 -31.06 1.56 6.18 6.18 0 0 0 -3.05 5.65l.29 6.29a6.23 6.23 0 0 1 -2.73 5.45l-9.27 6.28a6.23 6.23 0 0 0 -2.67 6l1.51 10.75a6.24 6.24 0 0 1 -2.54 5.94l-9.74 7a6.26 6.26 0 0 0 -2.57 5.76l1.35 12.23a6.25 6.25 0 0 1 -2.33 5.57l-12.14 9.63a6.17 6.17 0 0 0 5.92 2.17l22.1-4.25c12.81-2.63 25.47-6.09 37-12.47 9.9-5.48 18.8-13.23 24.23-23.17 9.84-18.07 5.72-41.48-14.27-50.39zm0 0" fill="#e0452e"/><path d="m486.61 79.89a34.53 34.53 0 0 0 -13.11-3 35.11 35.11 0 0 1 5.63 1.95c20 8.91 24.11 32.32 14.26 50.39-5.43 9.94-14.33 17.69-24.22 23.18-11.5 6.37-24.16 9.84-37 12.46l-19.87 3.83a6.17 6.17 0 0 0 5.25 1.46l22.1-4.25c12.81-2.63 25.47-6.09 37-12.47 9.89-5.48 18.8-13.23 24.23-23.17 9.84-18.06 5.72-41.47-14.27-50.38z" fill="#c12414"/><path d="m397.36 150.33s9.72 12 14.27 17.54a6.64 6.64 0 0 0 .56.61l10.71-11.18a6.26 6.26 0 0 0 1.55-5.85l-3-11.92a6.28 6.28 0 0 1 1.75-6.06l8.69-8.25a6.23 6.23 0 0 0 1.71-6.23l-3-10.44a6.27 6.27 0 0 1 1.82-6.35l8.31-7.49a6.22 6.22 0 0 0 2-5.77c-1.17-6.28-2-12.48-5.16-18.14a34.29 34.29 0 0 0 -20.67-16.49c-21-6.08-39.34 9.14-43.43 29.3-2.26 11.09-.49 22.74 3.53 33.31 4.7 12.31 12.25 23.16 20.36 33.41zm0 0" fill="#e0452e"/><path d="m432.43 102.2 8.31-7.49a6.23 6.23 0 0 0 2-5.77c-1.17-6.28-2-12.48-5.16-18.14a34.27 34.27 0 0 0 -18.12-15.66 34.67 34.67 0 0 1 10.91 12c3.13 5.66 4 11.86 5.16 18.14a6.23 6.23 0 0 1 -2 5.77l-8.31 7.49a6.26 6.26 0 0 0 -1.82 6.34l3 10.45a6.24 6.24 0 0 1 -1.7 6.22l-8.7 8.26a6.28 6.28 0 0 0 -1.75 6.06l3 11.92a6.26 6.26 0 0 1 -1.55 5.85l-8.48 8.85 4.42 5.42a6.64 6.64 0 0 0 .56.61l10.7-11.22a6.26 6.26 0 0 0 1.55-5.85l-3-11.92a6.28 6.28 0 0 1 1.75-6.06l8.7-8.25a6.25 6.25 0 0 0 1.7-6.23l-3-10.45a6.26 6.26 0 0 1 1.83-6.34z" fill="#c12414"/></svg>