<svg id="Capa_1" enable-background="new 0 0 512 512" height="512" viewBox="0 0 512 512" width="512" xmlns="http://www.w3.org/2000/svg"><g><path d="m392 0v40h80v80h40v-120z"/><path d="m40 40h80v-40h-120v120h40z"/><path d="m40 392h-40v120h120v-40h-80z"/><path d="m472 472h-80v40h120v-120h-40z"/><path d="m76 236h160v-160h-160zm40-120h80v80h-80z"/><path d="m436 76h-160v160h160zm-40 120h-80v-80h80z"/><path d="m76 436h160v-160h-160zm40-120h80v80h-80z"/><path d="m396 276h40v40h-40z"/><path d="m356 316h40v40h-40z"/><path d="m396 356h40v40h-40z"/><path d="m396 396h-80v-80h40v-40h-80v160h120z"/></g></svg>