<svg height="512" viewBox="0 0 512 512" width="512" xmlns="http://www.w3.org/2000/svg"><g isolation="isolate"><g id="Layer_1" data-name="Layer 1"><path d="m379.24 195.6h26.64v57.34h-26.64z" fill="#119e68" transform="matrix(-.943 -.334 .334 -.943 687.8 566.66)"/><path d="m382.82 200.25h19.48v48.04h-19.48z" fill="#a2cf7b" transform="matrix(-.943 -.334 .334 -.943 687.8 566.66)"/><circle cx="392.56" cy="224.28" fill="#119e68" r="5.83"/><path d="m389.17 195.71h30.7v66.08h-30.7z" fill="#119e68" transform="matrix(-.844 -.537 .537 -.844 623.15 638.82)"/><path d="m393.29 201.07h22.45v55.37h-22.45z" fill="#a2cf7b" transform="matrix(-.844 -.537 .537 -.844 623.15 638.82)"/><circle cx="404.52" cy="228.75" fill="#119e68" r="6.72"/><path d="m396.3 197.29h33.64v72.41h-33.64z" fill="#119e68" transform="matrix(-.737 -.676 .676 -.737 559.64 684.85)"/><path d="m400.82 203.17h24.6v60.67h-24.6z" fill="#a2cf7b" transform="matrix(-.737 -.676 .676 -.737 559.64 684.85)"/><circle cx="413.12" cy="233.5" fill="#119e68" r="7.36"/><path d="m415.13 247.96h26.64v57.34h-26.64z" fill="#119e68" transform="matrix(-.047 .999 -.999 -.047 725.08 -138.23)"/><path d="m418.71 252.61h19.48v48.04h-19.48z" fill="#a2cf7b" transform="matrix(-.047 .999 -.999 -.047 725.08 -138.23)"/><circle cx="428.45" cy="276.64" fill="#119e68" r="5.83"/><path d="m413.48 230.83h30.7v66.08h-30.7z" fill="#119e68" transform="matrix(.178 .984 -.984 .178 612.22 -205.05)"/><path d="m417.61 236.19h22.45v55.37h-22.45z" fill="#a2cf7b" transform="matrix(.178 .984 -.984 .178 612.22 -205.05)"/><circle cx="428.83" cy="263.87" fill="#119e68" r="6.72"/><path d="m410.86 217.91h33.64v72.41h-33.64z" fill="#119e68" transform="matrix(.348 .938 -.938 .348 517.32 -235.22)"/><path d="m415.38 223.78h24.6v60.67h-24.6z" fill="#a2cf7b" transform="matrix(.348 .938 -.938 .348 517.32 -235.22)"/><circle cx="427.68" cy="254.11" fill="#119e68" r="7.36"/><path d="m403.15 204.19h34.96v75.26h-34.96z" fill="#119e68" transform="matrix(-.612 -.791 .791 -.612 486.74 722.48)"/><path d="m407.85 210.29h25.56v63.05h-25.56z" fill="#a2cf7b" transform="matrix(-.612 -.791 .791 -.612 486.74 722.48)"/><circle cx="420.63" cy="241.81" fill="#119e68" r="7.65"/><path d="m420.37 387.2-18.85 11.08a1.53 1.53 0 0 1 -1.73-.13c-21.13-17.51-17.92-44.54-17.23-51.75a1.5 1.5 0 0 1 1.8-1.34l13.69 2.87 8.18 1.71a1.53 1.53 0 0 1 1.2 1.49c0 21.83 8.9 30.64 13.05 33.55a1.5 1.5 0 0 1 -.11 2.52z" fill="#a2cf7b"/><path d="m400.75 399.78a2.8 2.8 0 0 1 -1.78-.64c-9-7.46-14.76-17.47-17.11-29.74a77.54 77.54 0 0 1 -.64-22.54v-.58a2.83 2.83 0 0 1 1.13-2 2.77 2.77 0 0 1 2.23-.48l21.87 4.57a2.83 2.83 0 0 1 2.22 2.75c0 21.4 8.74 29.85 12.5 32.5a2.74 2.74 0 0 1 1.23 2.38 2.8 2.8 0 0 1 -1.38 2.3l-18.85 11.08a2.79 2.79 0 0 1 -1.42.4zm-16.7-53.46a.19.19 0 0 0 -.12 0 .2.2 0 0 0 -.09.16l-.06.59c-.8 8.26-3.24 33.42 16.83 50.05a.24.24 0 0 0 .26 0l18.84-11.08a.22.22 0 0 0 0-.36c-12.28-8.62-13.6-27.07-13.6-34.6a.23.23 0 0 0 -.17-.23l-21.87-4.57z" fill="#119e68"/><circle cx="397.92" cy="371.29" fill="#119e68" r="5.77"/><path d="m465.44 130.72a1.25 1.25 0 0 1 -1.39-1c-.05-.28-.12-.6-.2-1-.83-3.64-3.19-11-9-13.54a1.23 1.23 0 0 1 -.07-2.21c6.31-3.43 21.47-13.12 27-29.55a39.68 39.68 0 0 0 1.95-15.78 1.24 1.24 0 0 1 1.91-1.14l17.18 11a4 4 0 0 1 1.8 3.19c.31 9.18-1.01 44.67-39.18 50.03z" fill="#a2cf7b"/><path d="m465.27 132.07a2.59 2.59 0 0 1 -2.53-2.09c-.49-2.53-2.55-11-8.39-13.52a2.54 2.54 0 0 1 -1.51-2.22 2.58 2.58 0 0 1 1.34-2.39c7.11-3.86 30.13-18.46 28.24-44.06a2.58 2.58 0 0 1 4-2.36l17.18 11a5.27 5.27 0 0 1 2.4 4.32c.15 4.44-.08 16-5.3 27-6.55 13.79-18.34 22-35.05 24.32zm-9.65-18c6.63 3.06 9 11.63 9.72 15.29 9.36-1.33 39.26-8.75 38-48.55a2.64 2.64 0 0 0 -1.2-2.12l-17-11c1.86 26.97-21.89 42.23-29.52 46.41z" fill="#119e68"/><circle cx="481.95" cy="103.67" fill="#119e68" r="5.98"/><path d="m121.34 196.71h26.64v57.34h-26.64z" fill="#119e68" transform="matrix(.943 -.334 .334 .943 -67.47 57.83)"/><path d="m124.92 201.36h19.48v48.04h-19.48z" fill="#a2cf7b" transform="matrix(.943 -.334 .334 .943 -67.47 57.83)"/><circle cx="134.66" cy="225.38" fill="#119e68" r="5.83"/><path d="m107.35 196.81h30.7v66.08h-30.7z" fill="#119e68" transform="matrix(.844 -.537 .537 .844 -104.17 101.72)"/><path d="m111.47 202.17h22.45v55.37h-22.45z" fill="#a2cf7b" transform="matrix(.84 -.54 .54 .84 -104.17 101.72)"/><circle cx="122.7" cy="229.85" fill="#119e68" r="6.72"/><path d="m97.27 198.4h33.64v72.41h-33.64z" fill="#119e68" transform="matrix(.737 -.676 .676 .737 -128.59 138.88)"/><path d="m101.79 204.27h24.6v60.67h-24.6z" fill="#a2cf7b" transform="matrix(.737 -.676 .676 .737 -128.59 138.88)"/><circle cx="114.09" cy="234.6" fill="#119e68" r="7.36"/><path d="m85.44 249.07h26.64v57.34h-26.64z" fill="#119e68" transform="matrix(.047 .999 -.999 .047 371.51 165.93)"/><path d="m89.02 253.72h19.48v48.04h-19.48z" fill="#a2cf7b" transform="matrix(.047 .999 -.999 .047 371.51 165.93)"/><circle cx="98.76" cy="277.74" fill="#119e68" r="5.83"/><path d="m83.03 231.93h30.7v66.08h-30.7z" fill="#119e68" transform="matrix(-.18 .98 -.98 -.18 376.63 215.29)"/><path d="m87.16 237.29h22.45v55.37h-22.45z" fill="#a2cf7b" transform="matrix(-.178 .984 -.984 -.178 376.63 215.29)"/><circle cx="98.38" cy="264.97" fill="#119e68" r="6.72"/><path d="m82.71 219.01h33.64v72.41h-33.64z" fill="#119e68" transform="matrix(-.348 .938 -.938 -.348 373.42 250.59)"/><path d="m87.23 224.88h24.6v60.67h-24.6z" fill="#a2cf7b" transform="matrix(-.348 .938 -.938 -.348 373.42 250.59)"/><circle cx="99.53" cy="255.21" fill="#119e68" r="7.36"/><path d="m89.1 205.29h34.96v75.26h-34.96z" fill="#119e68" transform="matrix(.612 -.791 .791 .612 -150.77 178.58)"/><path d="m93.8 211.39h25.56v63.05h-25.56z" fill="#a2cf7b" transform="matrix(.612 -.791 .791 .612 -150.77 178.58)"/><circle cx="106.58" cy="242.92" fill="#119e68" r="7.65"/><path d="m106.46 390.7 15.25 9a1.24 1.24 0 0 0 1.41-.11c17.1-14.17 14.5-36.05 13.95-41.89a1.21 1.21 0 0 0 -1.46-1.08l-11.09 2.32-6.62 1.38a1.23 1.23 0 0 0 -1 1.21c0 17.67-7.21 24.8-10.56 27.16a1.21 1.21 0 0 0 .12 2.01z" fill="#a2cf7b"/><path d="m121.19 400.57-15.26-9a2.26 2.26 0 0 1 -.17-3.8c3-2.13 10.13-9 10.13-26.3a2.28 2.28 0 0 1 1.79-2.23l17.71-3.7a2.26 2.26 0 0 1 1.8.39 2.3 2.3 0 0 1 .92 1.61v.47a63 63 0 0 1 -.52 18.25 40.13 40.13 0 0 1 -13.85 24.08 2.26 2.26 0 0 1 -1.44.51 2.23 2.23 0 0 1 -1.11-.28zm14.63-43-17.71 3.7a.2.2 0 0 0 -.14.19c0 6.09-1.06 21-11 28a.18.18 0 0 0 0 .29l15.25 9a.18.18 0 0 0 .21 0c16.25-13.46 14.27-33.83 13.62-40.52v-.47a.17.17 0 0 0 -.18-.16z" fill="#119e68"/><circle cx="124.63" cy="377.82" fill="#119e68" r="4.67"/><path d="m46.56 143.87a1.25 1.25 0 0 0 1.39-1c0-.28.12-.6.2-1 .83-3.64 3.19-11 9-13.54a1.23 1.23 0 0 0 .07-2.21c-6.31-3.43-21.47-13.12-27-29.55a39.68 39.68 0 0 1 -1.95-15.78 1.24 1.24 0 0 0 -1.91-1.14l-17.18 11a4 4 0 0 0 -1.8 3.19c-.31 9.16 1.01 44.67 39.18 50.03z" fill="#a2cf7b"/><path d="m46.38 145.19c-16.71-2.34-28.5-10.53-35.05-24.32-5.22-11-5.45-22.53-5.3-27a5.27 5.27 0 0 1 2.41-4.27l17.18-11a2.58 2.58 0 0 1 4 2.36c-1.89 25.6 21.13 40.2 28.24 44.06a2.58 2.58 0 0 1 1.34 2.39 2.54 2.54 0 0 1 -1.51 2.22c-5.84 2.55-7.9 11-8.39 13.52a2.59 2.59 0 0 1 -2.53 2.09zm-19.47-64.27-17 11a2.64 2.64 0 0 0 -1.22 2.08c-1.29 39.8 28.61 47.22 38 48.55.72-3.66 3.09-12.23 9.72-15.29-7.66-4.19-31.41-19.45-29.5-46.34z" fill="#119e68"/><circle cx="30.05" cy="116.82" fill="#119e68" r="5.98"/><path d="m120.55 277.66c25.63 26.42 54.45 41.38 97.37 36-.24-4.68-.47-9.31-.66-14q-.24-5.82-.37-11.69c-34 .88-54.92-11.29-76.42-32.53-1.37-1.35-4.11-1.74-7.09-1.13a15.75 15.75 0 0 0 -9.21 5.6l-.38.38c-4.87 5.14-6.08 14.43-3.24 17.37z" fill="#d38950"/><path d="m136.21 262.75c22.41 22.44 46.93 37.05 81 36.91q-.24-5.82-.37-11.69c-34 .88-54.92-11.29-76.42-32.53-1.37-1.35-4.11-1.74-7.09-1.13-.47 2.69-.06 5.5 2.88 8.44z" fill="#de9b45"/><path d="m400 275.66c-25.63 26.42-54.45 41.38-97.37 36 .24-4.68.47-9.32.66-14q.24-5.82.37-11.69c34 .87 54.92-11.29 76.42-32.53 1.37-1.35 4.12-1.74 7.09-1.13a15.75 15.75 0 0 1 9.21 5.6l.38.38c4.9 5.14 6.11 14.43 3.24 17.37z" fill="#de9b45"/><path d="m384.37 260.75c-22.41 22.44-46.93 37.05-81.05 36.91q.24-5.82.37-11.69c34 .87 54.92-11.29 76.42-32.53 1.37-1.35 4.12-1.74 7.09-1.13.52 2.69.11 5.5-2.83 8.44z" fill="#e8aa67"/><path d="m409 266.85c1-3.9-.08-6.5-2.55-7.64a10 10 0 0 0 -5.72-.17l-1.07.28a9.4 9.4 0 0 0 .45-2.11c.34-3.35-.45-5.81-3-6.87-1.16-.49-4-.13-5.7.56a12.39 12.39 0 0 0 -.72-6.26c-1.41-2.32-5.1-3.48-8.82-1.23-11.5 7-8.95 19.21-8.95 19.21.33 3.72 2.67 8.07 6.6 11.59s8.51 5.35 12.25 5.25 14.06-.22 17.23-12.61z" fill="#fae7c6"/><path d="m391.4 250.89s-3.58 8.11-9.84 11.11c0 0 10-10.31 8.4-18.22.04-.05 2.56 1.15 1.44 7.11z" fill="#eac589"/><path d="m399.65 259.25s-3.59 8.12-9.84 11.06c0 0 10.6-10.87 9-18.78.01 0 2.6 2.53.84 7.72z" fill="#eac589"/><path d="m318.59 428.49s-54.85-20.47-117.78 0l5.64-122.73h102.55z" fill="#af130b"/><circle cx="258.12" cy="393.07" fill="#d38950" r="23.84"/><path d="m258.12 369.23a23.84 23.84 0 0 1 0 47.68" fill="#de9b45"/><ellipse cx="260.16" cy="451.65" fill="#7a7a7a" opacity=".44" rx="66.95" ry="11.51"/><path d="m254.68 409.06v4.09c-.13 26.25 1.18 32.47-13.63 37.21-13.46 4.31-14.46-3.6-14.46-3.6s-2.09 1.12-4.33-1.37c-5.71-6.34 10.08-10.08 10.08-10.08l-16.51-52.94s39.17-3.1 38.85 26.69z" fill="#d38950"/><path d="m128.82 281.46c3.74.09 8.32-1.75 12.25-5.26s6.27-7.86 6.6-11.59 2.55-12.25-8.95-19.21c-3.72-2.26-7.41-1.1-8.82 1.22a12.42 12.42 0 0 0 -.72 6.27c-1.75-.7-4.54-1.06-5.7-.57-2.52 1.06-3.31 3.52-3 6.88a9.44 9.44 0 0 0 .45 2.1l-1.07-.28a10 10 0 0 0 -5.72.16c-2.47 1.14-3.53 3.74-2.55 7.64 3.16 12.42 17.23 12.64 17.23 12.64z" fill="#fae7c6"/><path d="m129.18 252.9s3.58 8.11 9.84 11c0 0-10-10.31-8.4-18.22 0 .05-2.56 1.26-1.44 7.22z" fill="#eac589"/><path d="m120.94 261.25s3.58 8.12 9.83 11.06c0 0-10.6-10.87-9-18.78-.01 0-2.6 2.53-.83 7.72z" fill="#eac589"/><path d="m301 386.51a17.2 17.2 0 0 1 -3.43 4.86c-6.87 7.06-20.51 11.61-34.69 12.28-1.22.07-2.44.1-3.66.1s-2.34 0-3.51-.08c-14.08-.65-27.65-5.12-34.62-12.08a17.54 17.54 0 0 1 -3.65-5.08c-8.22-17.92-5.4-41 0-60.54a222.06 222.06 0 0 1 14.19-37.23 97.13 97.13 0 0 0 24.64 3.15c1 0 2 0 3-.05a96 96 0 0 0 26.85-4.61c5.26 10.49 30.88 64.53 14.88 99.28z" fill="#de9b45"/><path d="m256.15 291.91a97.13 97.13 0 0 1 -24.64-3.15 222.42 222.42 0 0 0 -14.19 37.24c-5.39 19.57-8.21 42.62 0 60.54a17.71 17.71 0 0 0 3.65 5.09c7 6.95 20.55 11.43 34.62 12.07.84 0 1.68 0 2.52.06v-111.88c-.65.01-1.3.03-1.96.03z" fill="#d38950"/><path d="m282.83 332.29c0 22 2 57.51-22.67 57.51s-22.66-35.54-22.66-57.51 10.14-39.79 22.66-39.79 22.67 17.81 22.67 39.79z" fill="#fae7c6"/><path d="m252 443a13.54 13.54 0 0 1 -11.76 7.77s-8.25 7.3-15.83.38a6.4 6.4 0 0 1 -7.31-1.24s-6.35.86-5-7 14.81-8.63 14.81-8.63h5a51.08 51.08 0 0 1 11.29 2.42 18.44 18.44 0 0 1 8.8 6.3z" fill="#fae7c6"/><path d="m240.28 447.74s-8.25 7.3-15.83.37a6.39 6.39 0 0 1 -7.31-1.23s-4.29.57-5.08-3.59c-1.05 7.45 5.08 6.63 5.08 6.63a6.4 6.4 0 0 0 7.31 1.24c7.58 6.92 15.83-.38 15.83-.38a13.54 13.54 0 0 0 11.72-7.78l-.41-.18a18.88 18.88 0 0 1 -11.31 4.92z" fill="#eac589"/><path d="m217.14 449.92s-2.93-10.78 7-12.33c-.05 0-6.03 2.32-7 12.33z" fill="#eac589"/><path d="m224.5 451.1s-2.93-10.79 6.95-12.34c0 0-5.98 2.32-6.95 12.34z" fill="#eac589"/><path d="m263.78 409.06v4.09c.14 26.25-1.17 32.47 13.64 37.21 13.46 4.31 14.46-3.6 14.46-3.6s2.09 1.12 4.33-1.37c5.7-6.34-10.08-10.08-10.08-10.08l16.5-52.94s-39.2-3.1-38.85 26.69z" fill="#de9b45"/><path d="m266.41 443a13.56 13.56 0 0 0 11.76 7.77s8.25 7.3 15.84.38a6.39 6.39 0 0 0 7.3-1.24s6.36.86 5-7-14.81-8.63-14.81-8.63h-5a51.22 51.22 0 0 0 -11.3 2.42 18.51 18.51 0 0 0 -8.79 6.3z" fill="#fae7c6"/><path d="m278.17 447.74s8.25 7.3 15.84.37a6.38 6.38 0 0 0 7.3-1.23s4.29.57 5.08-3.59c1.06 7.45-5.08 6.63-5.08 6.63a6.39 6.39 0 0 1 -7.3 1.24c-7.59 6.92-15.84-.38-15.84-.38a13.56 13.56 0 0 1 -11.76-7.78l.42-.18a18.88 18.88 0 0 0 11.34 4.92z" fill="#eac589"/><path d="m301.31 449.92s2.93-10.78-6.95-12.33c0 0 5.98 2.32 6.95 12.33z" fill="#eac589"/><path d="m294 451.1s2.93-10.79-6.95-12.34c-.05 0 5.95 2.32 6.95 12.34z" fill="#eac589"/><ellipse cx="258.79" cy="297.39" fill="#ce783e" opacity=".41" rx="31.61" ry="38.57" transform="matrix(.034 -.999 .999 .034 -47.31 545.82)"/><path d="m445.24 50.24s-63.63-8.7-127.95 50.47 49.3 89.34 53.58 94c0 .03 83.46-69.71 74.37-144.47z" fill="#ffc7d7"/><path d="m445.24 50.24s-80.3 64.94-98.4 106.39l-11-34.14s58.25-63.44 109.38-72.25" fill="#f9afc7"/><path d="m445.24 50.24s-60.48-9.81-127.95 50.47l21.24 30.61s34.32-51.01 106.71-81.08z" fill="#de9b45"/><path d="m445.24 50.24s-3.9 79.92-78.26 137.35l3.89 7.15s84.26-65.38 74.37-144.5z" fill="#de9b45"/><path d="m70.51 49.43s63.63-8.7 127.94 50.47-49.29 89.33-53.57 94c0 .03-83.47-69.7-74.37-144.47z" fill="#ffc7d7"/><path d="m70.51 49.43s80.3 64.94 98.4 106.39l11-34.14s-58.27-63.45-109.4-72.25" fill="#f9afc7"/><path d="m70.51 49.43s60.49-9.82 127.94 50.47l-21.23 30.61s-34.32-51.01-106.71-81.08z" fill="#d38950"/><path d="m70.51 49.43s3.9 79.92 78.25 137.35l-3.88 7.15s-84.26-65.38-74.37-144.5z" fill="#d38950"/><g fill="#c32720"><path d="m221.1 345.28c.25-1 .51-2.07.77-3.07-.26 1.01-.51 2.03-.77 3.07z"/><path d="m222.92 338.28c.35-1.27.71-2.52 1.07-3.73-.36 1.21-.72 2.45-1.07 3.73z"/><path d="m224.53 332.77c.62-2.06 1.26-4 1.88-5.87-.62 1.86-1.26 3.81-1.88 5.87z"/><path d="m226.41 326.9q.94-2.77 1.87-5.23c-.61 1.64-1.28 3.39-1.87 5.23z"/></g><path d="m201.3 430.3a46 46 0 0 1 -9.08-2.38 6.75 6.75 0 0 1 -4.31-6c-.95-20.13-3.42-109.29 25.89-131.2l13.2 6.96a104.7 104.7 0 0 0 -8.19 16.88c-9.65 24.09-21.22 67.37-17.55 115.73" fill="#e0452e"/><path d="m229.76 317.81c.11-.25.21-.5.31-.75-.41 1-.84 2.09-1.27 3.23.32-.86.64-1.68.96-2.48z" fill="#c32720"/><path d="m236.31 303.78.24-.42z" fill="#c32720"/><path d="m236.85 302.85-.09.16a1.25 1.25 0 0 1 .09-.16z" fill="#c32720"/><path d="m236.86 302.84a1.25 1.25 0 0 0 -.09.16 2.9 2.9 0 0 0 -.21.35l-.24.42c-.28.5-.65 1.18-1.11 2.05l-.31.59-.16.32-.34.68c-.55 1.1-1.17 2.39-1.84 3.88l-.33.71-.33.75c-.11.25-.22.51-.34.77a.36.36 0 0 1 0 .09l-.3.71c-.29.68-.59 1.39-.89 2.13-.09.2-.17.4-.25.6s-.2.5-.31.75c-.32.8-.64 1.62-1 2.48-.18.45-.35.91-.52 1.38q-.93 2.46-1.87 5.23c-.62 1.85-1.26 3.81-1.88 5.87-.18.58-.37 1.17-.54 1.78-.36 1.21-.72 2.46-1.07 3.73l-.27 1c-.17.64-.35 1.29-.52 2-.09.33-.17.66-.26 1-.26 1-.52 2-.77 3.07s-.43 1.79-.64 2.71-.4 1.77-.59 2.67c-.09.37-.16.73-.24 1.11l-.24 1.12c-.08.38-.16.76-.23 1.14-.16.76-.31 1.53-.46 2.31-.08.39-.15.78-.23 1.17l-.36 2c-.6 3.34-1.16 6.81-1.66 10.44-.06.43-.12.87-.17 1.3q-.27 2-.51 4c0 .31-.07.61-.11.93-.76 6.67-1.33 13.77-1.62 21.29v1.36 1.07.65l-.06 2.81c0 1.09 0 2.19-.05 3.3v1.14q-.06 11.1.73 23.29a64.71 64.71 0 0 1 -13.24-.76c-3.67-48.36 7.9-91.64 17.55-115.73a104.7 104.7 0 0 1 8.02-16.98z" fill="#fff"/><path d="m236.86 302.83-9.86-5.15z" fill="#fbeadf"/><g mix-blend-mode="multiply"><path d="m236.86 302.83a108.75 108.75 0 0 0 -7.1 15 33.45 33.45 0 0 1 -10.91-3.25 105.56 105.56 0 0 1 8.15-16.9z" fill="#fbeadf"/></g><path d="m252.53 295.34s-16.58 22.15-31.94 13.1-15-21-15-21l16.73-15z" fill="#f2f2f2"/><path d="m297.74 345.28c-.25-1-.51-2.07-.77-3.07.25 1.01.51 2.03.77 3.07z" fill="#c32720"/><path d="m295.92 338.28c-.35-1.27-.71-2.52-1.07-3.73.36 1.21.72 2.45 1.07 3.73z" fill="#c32720"/><path d="m294.31 332.77c-.62-2.06-1.26-4-1.89-5.87.63 1.86 1.27 3.81 1.89 5.87z" fill="#c32720"/><path d="m292.42 326.9q-.93-2.77-1.86-5.23c.61 1.64 1.23 3.39 1.86 5.23z" fill="#c32720"/><path d="m317.54 430.3a46.14 46.14 0 0 0 9.08-2.38 6.75 6.75 0 0 0 4.31-6c.95-20.13 3.42-109.29-25.89-131.2l-13.24 6.93a104.7 104.7 0 0 1 8.2 16.91c9.65 24.09 21.22 67.37 17.55 115.73" fill="#e0452e"/><path d="m289.07 317.81-.3-.75c.41 1 .84 2.09 1.27 3.23-.33-.86-.65-1.68-.97-2.48z" fill="#c32720"/><path d="m282.53 303.78-.24-.42q.09.18.24.42z" fill="#c32720"/><path d="m282 302.85.09.16z" fill="#c32720"/><path d="m282 302.84.09.16a2.9 2.9 0 0 1 .21.35l.24.42c.28.5.65 1.18 1.1 2.05.11.19.21.39.31.59s.11.21.16.32.23.44.35.68c.54 1.1 1.17 2.39 1.84 3.88.11.23.21.47.33.71s.21.49.33.75.22.51.34.77a.36.36 0 0 0 0 .09l.3.71c.29.68.59 1.39.89 2.13.09.2.17.4.25.6l.3.75c.32.8.64 1.62 1 2.48.18.45.35.91.52 1.38q.93 2.46 1.86 5.23c.63 1.85 1.27 3.81 1.89 5.87.18.58.36 1.17.54 1.78.36 1.21.72 2.46 1.07 3.73.09.32.18.64.26 1 .18.64.36 1.29.53 2 .09.33.17.66.26 1 .26 1 .52 2 .77 3.07s.43 1.79.64 2.71.4 1.77.59 2.67c.09.37.16.73.24 1.11l.24 1.12c.08.38.16.76.23 1.14.16.76.31 1.53.46 2.31.08.39.15.78.22 1.17.13.65.25 1.31.37 2 .6 3.34 1.16 6.81 1.66 10.44.05.43.12.87.17 1.3.18 1.31.35 2.64.5 4l.12.93c.76 6.67 1.32 13.77 1.62 21.29 0 .45 0 .91.05 1.36v1.07.65c0 .93.05 1.87.07 2.81v3.3 1.14q.06 11.1-.73 23.29a64.71 64.71 0 0 0 13.24-.76c3.67-48.36-7.9-91.64-17.55-115.73a104.7 104.7 0 0 0 -8.19-16.88z" fill="#fff"/><path d="m282 302.83 9.82-5.16z" fill="#fbeadf"/><g mix-blend-mode="multiply"><path d="m282 302.83a108.17 108.17 0 0 1 7.09 15 33.44 33.44 0 0 0 10.91-3.27 105.56 105.56 0 0 0 -8.19-16.88z" fill="#fbeadf"/></g><path d="m266.31 295.34s16.58 22.15 31.94 13.1 15-21 15-21l-16.73-15z" fill="#f2f2f2"/><path d="m346.2 131.76c-13.69-27.55-43.2-50.45-78.51-53.53-6.12-.37-6.32-.48-16.52 0-35.26 3.08-64.81 26-78.5 53.53-8.38 16.87-8.26 34.47-8 69.67.21 28.41.57 45.68 12.36 61.6 10.32 13.97 27.21 23.85 29.07 24.97 4.56 2.64 3.74 1.67 24 11.74 15.47 7.69 26 11.26 29.34 11.65 3.36-.39 13.88-4 29.35-11.65 20.25-10.07 19.42-9.1 24-11.74 1.87-1.08 18.75-11 29.08-24.93 11.79-15.92 12.15-33.19 12.36-61.6.22-35.24.35-52.84-8.03-69.71z" fill="#de9b45"/><path d="m251.17 78.23c-35.26 3.08-64.81 26-78.5 53.53-8.38 16.87-8.26 34.47-8 69.67.21 28.41.57 45.68 12.36 61.6 10.32 13.97 27.21 23.85 29.07 24.97 4.56 2.64 3.74 1.67 24 11.74 13.84 6.87 23.69 10.45 28 11.41l1.31-150.54-1.29-82.61c-1.7 0-3.86.09-6.95.23z" fill="#d38950"/><path d="m251.17 86.23c10.2-.48 10.4-.37 16.52 0 35.26 3.08 64.82 26 78.51 53.53 6.69 13.47 8 27.41 8.07 50.41.1-27.87-.64-43.42-8.07-58.37-13.69-27.56-43.2-50.45-78.51-53.53-6.12-.37-6.32-.48-16.52 0-35.26 3.08-64.81 26-78.5 53.53-7.43 14.95-8.18 30.5-8.07 58.37.11-23 1.37-36.94 8.07-50.41 13.69-27.56 43.24-50.45 78.5-53.53z" fill="#f2ad61" opacity=".16"/><path d="m302 240.66c-6.92-8.91-22.86-24.6-23.61-25.54-13-16.19-15.16-69.12-19.16-69.5h-.06c-4 .38-6.18 53.31-19.16 69.5-.75.94-16.68 16.63-23.61 25.54-7.84 11.19-9.07 22.35-5.64 30.68l11.92 29c5.21 12.69 19 21.49 34.82 22.6 0 0 1.14.11 1.7.09s1.7-.09 1.7-.09c15.86-1.11 29.61-9.91 34.83-22.6l11.92-29c3.46-8.34 2.23-19.49-5.65-30.68z" fill="#fae7c6"/><path d="m277.66 218.24-10.86 10.86a10.41 10.41 0 0 1 -14.73 0l-10.86-10.86a7.68 7.68 0 0 1 5.43-13.11h25.59a7.68 7.68 0 0 1 5.43 13.11z" fill="#663612"/><ellipse cx="251.84" cy="217" fill="#753c15" rx="4.24" ry="5.9"/><ellipse cx="267.02" cy="217" fill="#753c15" rx="4.24" ry="5.9"/><ellipse cx="266.65" cy="217" fill="#4f280e" rx="3.87" ry="5.9"/><ellipse cx="251.47" cy="217" fill="#4f280e" rx="3.87" ry="5.9"/><g opacity=".76"><path d="m237.24 195.72a43.85 43.85 0 1 0 -43.85 43.84 43.85 43.85 0 0 0 43.85-43.84z" fill="#cc773e"/></g><path d="m229.12 193.93a44.24 44.24 0 1 0 -44.24 44.23 44.25 44.25 0 0 0 44.24-44.23z" fill="#fff"/><path d="m140.6 198.63a44.28 44.28 0 0 0 88.56 0 39.6 39.6 0 0 0 -.21-4.24 44.27 44.27 0 0 1 -88.14 0 39.6 39.6 0 0 0 -.21 4.24z" fill="#f2f2f2"/><path d="m221.39 193.94a10.82 10.82 0 1 0 -8.87 8.79 10.81 10.81 0 0 0 8.87-8.79z" fill="#3e2945"/><path d="m208.69 199.85a7.61 7.61 0 1 0 -6.24 6.18 7.62 7.62 0 0 0 6.24-6.18z" fill="#fff"/><g opacity=".6"><path d="m281 194.74a45.68 45.68 0 1 1 45.68 45.67 45.68 45.68 0 0 1 -45.68-45.67z" fill="#cc773e"/></g><path d="m289 192.14a44.24 44.24 0 1 1 44.24 44.23 44.25 44.25 0 0 1 -44.24-44.23z" fill="#fff"/><path d="m377.54 196.84a44.28 44.28 0 0 1 -88.56 0 42.4 42.4 0 0 1 .2-4.24 44.27 44.27 0 0 0 88.15 0 42.39 42.39 0 0 1 .21 4.24z" fill="#f2f2f2"/><path d="m298.87 192.48a10.82 10.82 0 1 1 8.87 8.78 10.82 10.82 0 0 1 -8.87-8.78z" fill="#3e2945"/><path d="m311.58 198.38a7.61 7.61 0 1 1 6.24 6.18 7.62 7.62 0 0 1 -6.24-6.18z" fill="#fff"/><path d="m328.9 144.84s-39-11.79-41.36-15.88 8.28-15.07 16.21-12.45 28.62 17.16 28.24 23-3.09 5.33-3.09 5.33z" fill="#663612"/><path d="m330.67 144c0-.22.05-.45.07-.7.38-5.81-20.32-20.34-28.24-23-5.57-1.85-12.5 3-15.3 7.51-.28-4.67 9.29-13.69 16.55-11.29 7.92 2.62 28.62 17.17 28.24 23-.16 2.37-.71 3.69-1.32 4.48z" fill="#753c15"/><path d="m186.52 146.94s38.5-13.26 40.72-17.44-8.84-14.74-16.66-11.82-28 18.23-27.35 24 3.29 5.26 3.29 5.26z" fill="#663612"/><path d="m184.71 146.12c0-.21-.06-.45-.09-.69-.61-5.8 19.53-21.11 27.35-24 5.49-2.05 12.6 2.56 15.57 6.93.1-4.68-9.8-13.32-17-10.65-7.82 2.92-28 18.24-27.35 24 .29 2.39.89 3.7 1.52 4.41z" fill="#753c15"/><path d="m272.23 205.13h-25.59a7.49 7.49 0 0 0 -5.56 2.4h36.71a7.49 7.49 0 0 0 -5.56-2.4z" fill="#753c15"/><path d="m291.53 298.52c-5.16 11.53-15 19.28-31.66 14.38-11.84-3.49-20.38-13.6-26.09-25.42-9.88-20.48-11.27-46.12-6.63-51.28 1.47-1.61 3.5-1.19 6.08 2 .35.45.72.95 1.1 1.51.19.3.42.64.64 1 3.6 5.77 9.21 8.94 14.53 10.67.92.31 1.81.56 2.7.78a44.83 44.83 0 0 0 11.57 1.26 23.44 23.44 0 0 0 6.58-1.09c.25-.06.5-.14.75-.22 7.37-2.51 11.22-7.33 17.48-2.34a12.62 12.62 0 0 1 1.34 1.19 1 1 0 0 1 .17.14c.27.28.57.59.87.92 5.71 6.2 7.87 30.14.57 46.5z" fill="#822244"/><path d="m233.79 287.48c5.71 11.82 14.24 21.93 26.09 25.42 16.64 4.91 26.5-2.85 31.65-14.4 0 0-25.36-40.62-57.74-11.02z" fill="#dd686e"/><path d="m249.5 251.39c-5.32-1.73-10.93-4.9-14.53-10.67-.22-.36-.45-.7-.64-1-.38-.56-.75-1.06-1.1-1.51-2.58-3.2-4.61-3.62-6.08-2l12.51 30.71a1.15 1.15 0 0 0 2 .28l9.34-13.3 1.21-1.73z" fill="#fff"/><path d="m271.1 252.12-.42.8-8.2 16.45a1.26 1.26 0 0 1 -2.26.11l-9.22-15.58-1.49-2.51 2.7.78a44.83 44.83 0 0 0 11.57 1.26 23.44 23.44 0 0 0 6.58-1.09c.24-.06.49-.14.74-.22z" fill="#fff"/><path d="m289.92 251-7.92 18.37a.88.88 0 0 1 -1.62.11l-9.7-16.56-.33-.58c.25-.06.5-.14.75-.22 7.37-2.51 11.22-7.33 17.48-2.34a12.62 12.62 0 0 1 1.34 1.22z" fill="#fff"/></g></g></svg>