<svg id="Layer_1" height="512" viewBox="0 0 512 512" width="512" xmlns="http://www.w3.org/2000/svg" data-name="Layer 1"><path d="m130.25 346.2 108.78-34.59 99.09 26.8-80.09 67.96-127.87-56.18" fill="#751873"/><path d="m345.15 296.35c4.14-2.09 9 6.65 9.46 10.11 0 0 .11.47.12.53.69 4.91-.13 12-5.39 13.89-39.15 13.91-45.57 10.29-85.53-.16-.06-7.09 1.07-13.24 1.72-20.21 40.89 8.72 42.32 14.57 79.62-4.16z" fill="#de9b45"/><path d="m283 311a101.55 101.55 0 0 0 -18.82-4.12c.31.14.19-.08.21-.11a28.73 28.73 0 0 0 1.06-5.56c.12-1.28 0-.08 0-.53s0 .13 0-.16c40.68 8.49 42.55 15 79.41-4.37 2.95-1.55 6.39 3.25 7.76 5.21-7.33 3.85-24.15 23.16-69.62 9.64z" fill="#e8aa67"/><path d="m363.85 318.12c2.36-2.52 2.65-4.92 1.27-6.81a8.61 8.61 0 0 0 -4.23-2.51l-.92-.24a9.13 9.13 0 0 0 1.22-1.39c1.65-2.39 2.08-4.56.63-6.41-.66-.86-2.91-1.75-4.52-1.95a10.6 10.6 0 0 0 2.07-5c-.08-2.34-2.38-4.75-6.11-4.61a16.15 16.15 0 0 0 -14.75 10.71c-1.31 2.94-1.37 7.18.12 11.46s4.17 7.57 7 9.06 10.71 5.7 18.22-2.31z" fill="#fae7c6"/><path d="m357.31 298.81s-6.08 4.6-12 4.2c0 0 11.8-3.58 13.91-10.19 0 0 1.42 1.97-1.91 5.99z" fill="#eac589"/><path d="m360 308.53s-6.08 4.6-12 4.2c0 0 12.5-3.74 14.6-10.35.02 0 .92 2.98-2.6 6.15z" fill="#eac589"/><circle cx="236.75" cy="389.18" fill="#d38950" r="20.5"/><path d="m236.75 368.68a20.5 20.5 0 1 1 0 41" fill="#de9b45"/><ellipse cx="238.51" cy="439.54" fill="#7a7a7a" opacity=".44" rx="57.56" ry="9.9"/><path d="m233.8 402.93v3.51c-.12 22.56 1 27.92-11.73 32-11.57 3.7-12.43-3.11-12.43-3.11s-1.79 1-3.72-1.18c-4.9-5.45 8.67-8.66 8.67-8.66l-14.22-45.49s33.73-2.69 33.43 22.93z" fill="#d38950"/><path d="m139.51 295.94c-4.15-2.08-9 6.65-9.47 10.11 0 0-.1.48-.11.53-.69 4.92.13 12 5.38 13.89 39.15 13.91 45.57 10.29 85.53-.16.07-7.08-1.06-13.24-1.72-20.2-40.89 8.72-42.32 14.57-79.61-4.17z" fill="#d38950"/><path d="m201.62 310.59a102.1 102.1 0 0 1 18.81-4.12c-.3.15-.19-.07-.2-.11a27.92 27.92 0 0 1 -1.07-5.56c-.12-1.27 0-.07 0-.53s0 .13 0-.16c-40.68 8.5-42.55 15-79.4-4.37-3-1.55-6.4 3.25-7.76 5.22 7.37 3.85 24.18 23.16 69.62 9.63z" fill="#de9b45"/><path d="m301.34 383c3.07 1.61 5.45 1.24 6.9-.59a8.6 8.6 0 0 0 1.29-4.75v-.95a8.59 8.59 0 0 0 1.67.8c2.74 1 4.95.79 6.34-1.11.65-.87.9-3.27.67-4.87a10.71 10.71 0 0 0 5.38.65c2.23-.71 3.93-3.57 2.8-7.13a16.14 16.14 0 0 0 -14.26-11.33c-3.18-.47-7.29.61-11 3.19s-6.18 6-6.86 9.19-2.66 11.81 7.07 16.9z" fill="#fae7c6"/><path d="m318.2 371.54s-6.06-4.63-7.27-10.44c0 0 6.62 10.41 13.55 10.67 0 0-1.48 1.9-6.28-.23z" fill="#eac589"/><path d="m309.56 376.75s-6.07-4.62-7.27-10.44c0 0 7 11 13.89 11.3 0 0-2.63 1.66-6.62-.86z" fill="#eac589"/><path d="m139 320c2.84-1.49 5.52-4.78 7-9.06s1.44-8.53.13-11.46a16.14 16.14 0 0 0 -14.74-10.71c-3.74-.14-6 2.27-6.12 4.6a10.71 10.71 0 0 0 2.07 5c-1.61.21-3.85 1.1-4.52 2-1.45 1.85-1 4 .64 6.41a7.86 7.86 0 0 0 1.22 1.4l-.93.23a8.58 8.58 0 0 0 -4.23 2.51c-1.38 1.88-1.09 4.28 1.28 6.81 7.52 8 18.2 2.27 18.2 2.27z" fill="#fae7c6"/><path d="m127.34 298.4s6.08 4.61 12 4.21c0 0-11.81-3.59-13.91-10.2.01 0-1.43 1.98 1.91 5.99z" fill="#eac589"/><path d="m124.63 308.12s6.08 4.61 12 4.21c0 0-12.5-3.75-14.61-10.36-.02.03-.88 3.03 2.61 6.15z" fill="#eac589"/><path d="m273.63 383.54a14.77 14.77 0 0 1 -2.94 4.17c-5.91 6.08-17.64 10-29.82 10.57-1.05.05-2.1.08-3.15.08s-2 0-3-.07c-12.1-.55-23.77-4.4-29.77-10.38a15.23 15.23 0 0 1 -3.13-4.37c-7.06-15.41-4.64-35.23 0-52.05a190.52 190.52 0 0 1 12.2-32 83.57 83.57 0 0 0 21.18 2.7h2.55a82.31 82.31 0 0 0 23.08-4c4.52 9.01 26.51 55.48 12.8 85.35z" fill="#de9b45"/><path d="m235.06 302.21a83.12 83.12 0 0 1 -21.18-2.71 191.08 191.08 0 0 0 -12.2 32c-4.63 16.82-7.06 36.64 0 52.05a15.23 15.23 0 0 0 3.13 4.37c6 6 17.67 9.83 29.77 10.38.72 0 1.44 0 2.16.05v-96.17c-.55.02-1.11.03-1.68.03z" fill="#d38950"/><path d="m258 336.92c0 18.89 1.73 49.45-19.48 49.45s-19.52-30.56-19.52-49.45 8.73-34.2 19.49-34.2 19.51 15.28 19.51 34.2z" fill="#fae7c6"/><path d="m231.53 432.11a11.64 11.64 0 0 1 -10.11 6.68s-7.09 6.28-13.61.33a5.5 5.5 0 0 1 -6.28-1.06s-5.46.73-4.32-6 12.73-7.42 12.73-7.42h4.32a44.21 44.21 0 0 1 9.71 2.09 15.85 15.85 0 0 1 7.56 5.38z" fill="#fae7c6"/><g fill="#eac589"><path d="m221.42 436.17s-7.09 6.28-13.61.33a5.5 5.5 0 0 1 -6.28-1.06s-3.69.49-4.37-3.09c-.91 6.41 4.37 5.71 4.37 5.71a5.5 5.5 0 0 0 6.28 1.06c6.52 5.95 13.61-.33 13.61-.33a11.64 11.64 0 0 0 10.11-6.68l-.36-.15a16.17 16.17 0 0 1 -9.75 4.21z"/><path d="m201.53 438.06s-2.52-9.27 6-10.61c-.03 0-5.17 1.99-6 10.61z"/><path d="m207.85 439.06s-2.52-9.27 6-10.6c-.03 0-5.17 1.99-6 10.6z"/></g><path d="m241.62 402.93v3.51c.11 22.56-1 27.92 11.72 32 11.57 3.7 12.43-3.11 12.43-3.11s1.8 1 3.72-1.18c4.91-5.45-8.66-8.66-8.66-8.66l14.22-45.49s-33.73-2.69-33.43 22.93z" fill="#de9b45"/><path d="m243.89 432.11a11.62 11.62 0 0 0 10.11 6.68s7.09 6.28 13.61.33a5.5 5.5 0 0 0 6.28-1.06s5.46.73 4.32-6-12.74-7.42-12.74-7.42h-4.32a44.21 44.21 0 0 0 -9.71 2.09 15.79 15.79 0 0 0 -7.55 5.38z" fill="#fae7c6"/><path d="m254 436.17s7.09 6.28 13.61.33a5.5 5.5 0 0 0 6.28-1.06s3.68.49 4.36-3.09c.91 6.41-4.36 5.71-4.36 5.71a5.5 5.5 0 0 1 -6.28 1.06c-6.52 5.95-13.61-.33-13.61-.33a11.62 11.62 0 0 1 -10.11-6.68l.35-.15a16.17 16.17 0 0 0 9.76 4.21z" fill="#eac589"/><path d="m273.89 438.06s2.52-9.27-6-10.61c.02 0 5.17 1.99 6 10.61z" fill="#eac589"/><path d="m267.56 439.06s2.52-9.27-6-10.6c.03 0 5.17 1.99 6 10.6z" fill="#eac589"/><ellipse cx="237.33" cy="306.92" fill="#ce783e" opacity=".41" rx="27.17" ry="33.16" transform="matrix(.034 -.999 .999 .034 -77.56 533.58)"/><path d="m397.62 94.45s-54.7-7.48-110 43.39 42.38 76.8 46.06 80.84c.01 0 71.76-59.96 63.94-124.23z" fill="#ffc7d7"/><path d="m397.62 94.45s-69 55.83-84.59 91.46l-9.44-29.35s50.08-54.54 94-62.11" fill="#f9afc7"/><path d="m397.62 94.45s-52-8.44-110 43.39l18.26 26.31s29.51-43.85 91.74-69.7z" fill="#de9b45"/><path d="m397.62 94.45s-3.35 68.7-67.27 118.08l3.34 6.15s72.43-56.22 63.93-124.23z" fill="#de9b45"/><path d="m75.47 93.75s54.7-7.48 110 43.39-42.39 76.8-46.07 80.86c0 0-71.75-60-63.93-124.25z" fill="#ffc7d7"/><path d="m75.47 93.75s69 55.83 84.59 91.47l9.44-29.35s-50.08-54.55-94-62.12" fill="#f9afc7"/><path d="m75.47 93.75s52-8.44 110 43.39l-18.27 26.31s-29.5-43.85-91.73-69.7z" fill="#d38950"/><path d="m75.47 93.75s3.35 68.7 67.27 118.08l-3.34 6.17s-72.4-56.23-63.93-124.25z" fill="#d38950"/><path d="m312.48 164.53c-11.77-23.69-37.18-43.37-67.49-46-5.27-.32-5.44-.41-14.21 0-30.31 2.65-55.72 22.33-67.49 46-7.2 14.5-7.09 29.63-6.88 59.89.18 24.43.49 39.28 10.63 53 8.88 12 23.39 20.51 25 21.44 3.92 2.26 3.21 1.43 20.62 10.08 13.3 6.62 22.34 9.69 25.22 10 2.89-.33 11.93-3.4 25.23-10 17.41-8.65 16.7-7.82 20.62-10.08 1.61-.93 16.12-9.45 25-21.44 10.13-13.68 10.45-28.53 10.62-53 .22-30.26.33-45.42-6.87-59.89z" fill="#de9b45"/><path d="m230.78 118.51c-30.31 2.65-55.72 22.33-67.49 46-7.2 14.5-7.09 29.63-6.88 59.89.18 24.43.49 39.28 10.63 53 8.88 12 23.39 20.51 25 21.44 3.92 2.26 3.21 1.43 20.62 10.08 11.89 5.92 20.37 9 24.09 9.82l1.13-129.42-1.13-71c-1.46-.01-3.32.07-5.97.19z" fill="#d38950"/><path d="m230.78 125.38c8.77-.41 8.94-.31 14.21 0 30.31 2.65 55.72 22.34 67.49 46 5.75 11.57 6.84 23.57 6.93 43.34.09-24-.54-37.33-6.93-50.19-11.77-23.69-37.18-43.37-67.49-46-5.27-.31-5.44-.41-14.21 0-30.31 2.65-55.72 22.33-67.49 46-6.39 12.86-7 26.22-6.93 50.18.09-19.77 1.18-31.76 6.93-43.33 11.77-23.66 37.18-43.38 67.49-46z" fill="#f2ad61" opacity=".16"/><path d="m274.51 258.15c-5.95-7.66-19.65-21.15-20.29-21.95-11.17-13.92-13-59.43-16.48-59.75h-.05c-3.43.32-5.31 45.83-16.47 59.75-.65.8-14.34 14.29-20.3 21.95-6.73 9.62-7.79 19.21-4.85 26.38l10.25 24.92c4.48 10.91 16.3 18.47 29.94 19.43 0 0 1 .09 1.46.07s1.46-.07 1.46-.07c13.64-1 25.45-8.52 29.94-19.43l10.25-24.92c2.94-7.17 1.88-16.76-4.86-26.38z" fill="#fae7c6"/><path d="m253.55 238.88-9.34 9.34a9 9 0 0 1 -12.66 0l-9.33-9.34a6.6 6.6 0 0 1 4.67-11.27h22a6.6 6.6 0 0 1 4.66 11.27z" fill="#663612"/><ellipse cx="231.36" cy="237.81" fill="#753c15" rx="3.65" ry="5.07"/><ellipse cx="244.41" cy="237.81" fill="#753c15" rx="3.65" ry="5.07"/><ellipse cx="244.09" cy="237.81" fill="#4f280e" rx="3.32" ry="5.07"/><ellipse cx="231.04" cy="237.81" fill="#4f280e" rx="3.32" ry="5.07"/><g opacity=".76"><path d="m218.8 219.52a37.7 37.7 0 1 0 -37.69 37.69 37.7 37.7 0 0 0 37.69-37.69z" fill="#cc773e"/></g><path d="m211.82 218a38 38 0 1 0 -38 38 38 38 0 0 0 38-38z" fill="#fff"/><path d="m135.72 222a38.07 38.07 0 1 0 76.14 0c0-1.23-.06-2.44-.18-3.64a38.06 38.06 0 0 1 -75.78 0c-.12 1.21-.18 2.42-.18 3.64z" fill="#f2f2f2"/><path d="m205.18 218a9.3 9.3 0 1 0 -7.63 7.55 9.31 9.31 0 0 0 7.63-7.55z" fill="#3e2945"/><path d="m194.26 223.07a6.54 6.54 0 1 0 -5.37 5.31 6.55 6.55 0 0 0 5.37-5.31z" fill="#fff"/><g opacity=".6"><path d="m256.42 218.68a39.27 39.27 0 1 1 39.28 39.26 39.28 39.28 0 0 1 -39.28-39.26z" fill="#cc773e"/></g><path d="m263.32 216.44a38 38 0 1 1 38 38 38 38 0 0 1 -38-38z" fill="#fff"/><path d="m339.42 220.48a38.07 38.07 0 0 1 -76.14 0c0-1.23.06-2.45.18-3.65a38.06 38.06 0 0 0 75.78 0c.12 1.17.18 2.42.18 3.65z" fill="#f2f2f2"/><path d="m271.79 216.73a9.3 9.3 0 1 1 7.63 7.55 9.3 9.3 0 0 1 -7.63-7.55z" fill="#3e2945"/><path d="m282.71 221.8a6.54 6.54 0 1 1 5.37 5.32 6.55 6.55 0 0 1 -5.37-5.32z" fill="#fff"/><path d="m297.6 175.77s-33.5-10.13-35.55-13.65 7.12-13 13.93-10.7 24.61 14.75 24.28 19.75-2.66 4.6-2.66 4.6z" fill="#663612"/><path d="m299.13 175c0-.19 0-.39.05-.6.34-5-17.46-17.49-24.27-19.74-4.79-1.59-10.75 2.6-13.15 6.45-.24-4 8-11.76 14.22-9.7 6.81 2.25 24.61 14.76 24.28 19.75a6.69 6.69 0 0 1 -1.13 3.84z" fill="#753c15"/><path d="m175.2 177.58s33.09-11.4 35-15-7.6-12.67-14.33-10.16-24 15.67-23.51 20.65 2.84 4.51 2.84 4.51z" fill="#663612"/><path d="m173.65 176.88a5.44 5.44 0 0 1 -.08-.6c-.52-5 16.78-18.14 23.51-20.65 4.72-1.77 10.83 2.19 13.38 6 .09-4-8.42-11.45-14.58-9.15-6.72 2.51-24 15.67-23.51 20.65a6.64 6.64 0 0 0 1.28 3.75z" fill="#753c15"/><path d="m248.88 227.61h-22a6.4 6.4 0 0 0 -4.78 2.06h31.55a6.4 6.4 0 0 0 -4.77-2.06z" fill="#753c15"/><path d="m262.81 306.17c-4.68 10.83-13.64 18.08-28.81 13.49-10.78-3.28-18.54-12.75-23.73-23.82-11.81-25.24-10.28-58.77-.51-46.15a16.65 16.65 0 0 1 1 1.4c.2.28.39.6.6.93 7.84 13 26.18 11.91 26.18 11.91 11.56-.22 15.25-9.43 22.56-3.42a17 17 0 0 1 1.37 1.26l.79.85c5.22 5.81 7.18 28.23.55 43.55z" fill="#822244"/><path d="m210.31 295.83c5.19 11.08 12.95 20.55 23.73 23.83 15.13 4.59 24.09-2.68 28.77-13.5 0 0-23.05-38.05-52.5-10.33z" fill="#dd686e"/><path d="m338.12 347.54v123.74l-84.48 34.72-1.78-133.24z" fill="#7f247f"/><path d="m130.25 347.54v123.74l123.39 34.72-1.78-133.24z" fill="#751873"/><path d="m130.25 346.2-19.45 61.98 126.5 32.39 15.01-68.55z" fill="#90278e"/><path d="m252.31 372.02 15.33 68.55 89.16-40.94-19.13-61.29z" fill="#90278e"/><path d="m36.76 292.92-.18-.2c-11-13.3-11.56-33.47 2.89-45.49 11.49-9.55 25-6.84 33.72-1-4.16-9.62-4.36-23.41 7.12-33 14.46-12 34.2-7.85 45.25 5.44l.17.22c2.49 2.83 26.89 32.32 2.36 93.29-64.45 13.07-89-16.3-91.33-19.26z" fill="#f75d4d"/><path d="m80.08 230.06s16.8-30.6 40.09-2.44c0 0-17.94-17.72-40.09 2.44z" fill="#ff847b"/><circle cx="450.99" cy="170.75" fill="#00cdb3" r="11.6" transform="matrix(.965 -.261 .261 .965 -28.92 123.5)"/><path d="m463.06 268.74a6.31 6.31 0 0 1 -4.21 7.88l-12.05 3.67a6.32 6.32 0 0 1 -3.68-12.09l12.06-3.67a6.31 6.31 0 0 1 7.88 4.21z" fill="#00cdb3"/><path d="m390.79 289.63c31.8-2.84 36-25.35 39.12-41.79s4.76-25.37 24.72-22.63c18.51 2.53 32.61-.36 41.89-8.6a26.83 26.83 0 0 0 8.87-14.94 6.32 6.32 0 0 0 -12.5-1.91c0 .18-3.06 17.5-36.55 12.92-30.91-4.23-35.53 15.14-38.86 32.82-3.1 16.51-5.55 29.56-27.81 31.54a6.32 6.32 0 0 0 1.12 12.59z" fill="#f9b732"/><path d="m43.02 202.31-36.48-28.8 36.48-11.52z" fill="#f9b732"/><path d="m409.33 197.59-30-23.68 30-9.47z" fill="#f75d4d"/><path d="m17.74 46.33a5.69 5.69 0 0 1 7.91 1.46l6.43 9.33a5.68 5.68 0 1 1 -9.36 6.45l-6.44-9.33a5.7 5.7 0 0 1 1.46-7.91z" fill="#00cdb3"/><path d="m135.27 80.39c-11.11-26.49-31.57-24-46.5-22.13s-23 2.84-26.15-15c-2.89-16.58-9.21-27.87-18.81-33.59a24.13 24.13 0 0 0 -15.23-3.52 5.69 5.69 0 0 0 1.78 11.24c.16 0 15.84-2.15 21 27.81 4.81 27.65 22.68 26.33 38.74 24.35 15-1.85 26.85-3.31 34.63 15.24a5.69 5.69 0 0 0 10.49-4.4z" fill="#f9b732"/><path d="m51.31 89.61-12.12 32.19-16.31-23.14z" fill="#f75d4d"/></svg>